<svg xmlns="http://www.w3.org/2000/svg" viewBox="0 0 50 50"><defs><style>.cls-1{fill:#fff;}</style></defs><g id="Calque_2" data-name="Calque 2"><g id="Calque_1-2" data-name="Calque 1"><path class="cls-1" d="M25,0A25,25,0,1,0,50,25,25,25,0,0,0,25,0Zm0,47A22,22,0,1,1,47,25,22,22,0,0,1,25,47Z"/><path class="cls-1" d="M25,5A20,20,0,1,0,45,25,20,20,0,0,0,25,5ZM15.45,28.64A3.64,3.64,0,1,1,19.09,25,3.64,3.64,0,0,1,15.45,28.64Zm19.1,0A3.64,3.64,0,1,1,38.19,25,3.64,3.64,0,0,1,34.55,28.64Z"/></g></g></svg>