<svg xmlns="http://www.w3.org/2000/svg" viewBox="0 0 47.35 49.8"><defs><style>.cls-1{fill:#fff;}</style></defs><g id="Calque_2" data-name="Calque 2"><g id="Calque_1-2" data-name="Calque 1"><path class="cls-1" d="M43.73,10A24.93,24.93,0,0,0,25.92,0V8.68a4.18,4.18,0,1,1-4.41,0V0A25,25,0,0,0,3.59,10V21.28H0v7.23H3.59V39.8a25,25,0,0,0,18,10V40.86a4.18,4.18,0,1,1,4.41,0v8.88a25,25,0,0,0,17.72-10V28.51h3.62V21.28H43.73ZM13.84,29.18a4.29,4.29,0,1,1,4.29-4.28A4.29,4.29,0,0,1,13.84,29.18Zm19.67,0a4.29,4.29,0,1,1,4.28-4.28A4.29,4.29,0,0,1,33.51,29.18Z"/></g></g></svg>