<svg xmlns="http://www.w3.org/2000/svg" viewBox="0 0 50 50"><defs><style>.cls-1{fill:#fff;}</style></defs><g id="Calque_2" data-name="Calque 2"><g id="Calque_1-2" data-name="Calque 1"><path class="cls-1" d="M25,0A25,25,0,1,0,50,25,25,25,0,0,0,25,0Zm0,47A22,22,0,1,1,47,25,22,22,0,0,1,25,47Z"/><path class="cls-1" d="M25,5A20,20,0,1,0,45,25,20,20,0,0,0,25,5ZM20.82,24.08,18,22.48A2.77,2.77,0,0,1,13.63,20l-2.91-1.64a1.19,1.19,0,0,1,1.17-2.08l2.91,1.64a2.77,2.77,0,0,1,4.36,2.47L22,22a1.19,1.19,0,1,1-1.18,2.07Zm5.37,13.38V40.8a1.19,1.19,0,0,1-2.38,0V37.46a2.77,2.77,0,0,1,0-5V29.2a1.19,1.19,0,1,1,2.38,0v3.25a2.77,2.77,0,0,1,0,5ZM39.75,16.78a1.21,1.21,0,0,1-.46,1.63L36.38,20A2.76,2.76,0,0,1,32,22.5l-2.84,1.59A1.19,1.19,0,1,1,28,22l2.84-1.59A2.76,2.76,0,0,1,35.21,18l2.91-1.64A1.2,1.2,0,0,1,39.75,16.78Z"/></g></g></svg>