<?xml version="1.0" encoding="UTF-8"?>
<!-- Generator: Adobe Illustrator 25.2.0, SVG Export Plug-In . SVG Version: 6.00 Build 0)  -->
<svg version="1.1" id="Layer_1" xmlns="http://www.w3.org/2000/svg" xmlns:xlink="http://www.w3.org/1999/xlink" x="0px" y="0px" viewBox="0 0 134.3 139.7" style="enable-background:new 0 0 134.3 139.7;" xml:space="preserve">
<g>
	<path d="M121.8,100.8L116,103l-2.1,4.2l0.6,3.7l-2,2.2l-0.6,7l3.9,4.6l5.6-1.6l9-18.4l0.1-0.1l0.6-6l-3.9-3.9L121.8,100.8z    M118.8,107.9l0.6-1.2l5.1-1.9l1.3-1.6l0,0.1l-7.8,15.9l-0.7,0.2l-0.7-0.8l0.3-3.5l2.5-2.7L118.8,107.9z"/>
	<path d="M120.9,51.1l-12.4-13.6l-8.4-15l0.8-10.7l-14.7,0.5L74.8,8.4l-3.3,5.1L60.3,8.8l1.2-1L58.1,0l-22,3.1l-5.8-2.3l-8.3,6.1   l-2.4,5.5l-6.1,3.2L3.7,27.8L0,43l6.9,14.1l10,8.7l24.3-3.3l1.3,3.7l6.6-0.3l0.7,0.5l-2.1,8.4l7.4,9.1l2.1,9.5l-2.2,2.9l-1.9,8.4   l6.5,10.4l-0.5,8l6.3,8.8l-0.5,3.4l4.3,4.3l13.9-1.3l12.2-11l1-4.1l4.2-1.9l2.4-4.4l-1.4-5.8l10.4-6.5l1.6-10l-3.6-9.6l9.1-11.5   l5-2.7l9.3-13l0.7-11.2L120.9,51.1z M104.8,84.3l4.1,10.9l-1.1,6.7L96.4,109l1.8,7.3l-0.8,1.5l-4.8,2.2l-1.2,4.9l-10,9l-10.2,1   l-1.1-1.1l0.4-2.9l-6.4-8.9l0.4-7.9l-6.2-10l1.3-5.6l2.8-3.9l-2.8-12.7l-6.6-8.1l2.4-9.3l-4.7-3.2l-4.7,0.2l-1.4-4l-26,3.5   l-7.7-6.7L4.9,42.4L8,29.9l8.5-10.6l6.6-3.6l2.6-5.8l5.3-3.9l4.6,1.8l19.7-2.8l0.6,1.3l-4.7,3.6l22,9.4l3.5-5.3l8.9,3l10.3-0.4   l-0.5,6.9l9.3,16.7l14.8,16.3l9.7-3.2l-0.2,2.9l-7.9,11l-4.9,2.7L104.8,84.3z"/>
</g>
</svg>