<?xml version="1.0" encoding="UTF-8"?>
<!-- Generator: Adobe Illustrator 25.2.0, SVG Export Plug-In . SVG Version: 6.00 Build 0)  -->
<svg version="1.1" id="Calque_1" xmlns="http://www.w3.org/2000/svg" xmlns:xlink="http://www.w3.org/1999/xlink" x="0px" y="0px" viewBox="0 0 415.8 470" style="enable-background:new 0 0 415.8 470;" xml:space="preserve">
<g>
	<path d="M380.1,293.3c-4-9.8-12.7-17-23.1-18.9l-21.1-3.9c-0.4-0.1-0.7-0.3-0.9-0.6l-4.2-7.2c-3.5-5.9-9.4-9.9-16.1-11l-69.2-11.3   c-3-0.5-6-0.1-8.8,1.2l-8.1,3.7c-0.5,0.2-1.2,0.1-1.5-0.4l-10.2-13.4c-2-2.7-4.9-4.6-8.2-5.5l-8.7-2.4c-0.7-0.2-1.1-0.9-0.9-1.6   c0-0.1,0.1-0.2,0.2-0.4l8.9-13.8c0.2-0.3,0.5-0.5,0.8-0.6c0.3-0.1,0.7,0,1,0.2l17,12.4c2.9,2.1,6.5,3.2,10,2.9l4.3-0.3   c7.9-0.6,14.1-7.1,14.3-15l0.3-16.9c0-2.7,0.9-5.3,2.5-7.4l15.7-21.6c0.2-0.3,0.6-0.5,1-0.5l13.7-0.1c4.6,0,9.1-1,13.4-2.7   l15.1-6.4c11.1-4.7,16.7-17.2,12.9-28.6l-7.6-22.5c-2.2-6.5-6.5-12.1-12.3-15.9l-22.5-14.8c-5.3-3.5-11.8-4.6-18-3.2l-5.3,1.3   c-7.6,1.8-12.6,9.1-11.6,16.8l1,7.9c0.1,0.5-0.2,1-0.6,1.3l-2.4,1.3c-0.4,0.2-0.8,0.2-1.2,0l-16.4-8.4c-3.1-1.6-5-4.9-4.9-8.4   l0.1-1.7c0.1-2.8,1.5-5.3,3.7-6.9l26.7-19.3c6-4.3,9.3-11.4,8.9-18.8c-0.7-10.3-9.4-18.1-19.7-17.9l-39.1,1.4   c-10.1,0.4-18.7,7.6-20.8,17.6c-0.1,0.4-0.3,0.7-0.6,0.8c-0.3,0.2-0.7,0.2-1,0.1l-8.9-2.8c-5.5-1.7-11.3-2.3-17-1.8l-29.3,2.8   c-11.3,1.1-21.1,8.3-25.5,18.7l-2,4.6c-0.2,0.5-0.8,0.9-1.4,0.7l-18.7-3.9c-6.8-1.4-13.8-0.2-19.7,3.5l-32,19.8   C25.2,80,21.1,87.4,21.1,95.4v9.9c0,0.4-0.2,0.8-0.6,1.1L9,113.5c-8.1,5-11.2,15.3-7.3,24l0.7,1.6c3.8,8.6,13.4,13,22.4,10.5l0,0   l29.4-8.2c2.4-0.7,4.6-1.9,6.4-3.6l17.3-16.4c0.4-0.3,0.9-0.4,1.3-0.3l7.4,2.9c3.8,1.4,8,1.3,11.7-0.3l8.6-3.9c0.3-0.1,0.7-0.2,1,0   c0.3,0.1,0.6,0.4,0.7,0.7l3.8,9.1c0.7,1.6,0.9,3.5,0.5,5.2l-6.6,34.2c-1.1,5.6,0.4,11.4,4.1,15.8l10.2,12.1   c3.7,4.4,6.2,9.7,7.2,15.3l4.2,23c1.2,6.6,6.6,11.7,13.2,12.4l3.1,0.4c2.8,0.3,5.5,1.6,7.5,3.5l24.4,23.6c3.4,3.3,7.8,5.5,12.4,6.2   l27.5,4.3c0.4,0.1,0.8,0.4,1,0.8c0.2,0.4,0.1,0.9-0.2,1.2l-7,9.4c-1.4,1.9-2.3,4-2.8,6.3l-1.3,6.8c-1.1,5.9,0.1,12,3.4,17   l16.8,25.3c2.2,3.3,5.6,5.6,9.4,6.5l4.1,0.9c0.4,0.1,0.7,0.3,0.9,0.7c0.2,0.3,0.2,0.7,0,1.1l-3.9,9.5c-2,4.7-1.4,10.1,1.4,14.4   l3.6,5.3c0.3,0.5,0.3,1.1-0.1,1.5l-6.8,8.4c-5.2,6.5-4.3,15.9,2,21.3c0.3,0.2,0.5,0.6,0.5,1v27.2c0,7.6,4.5,14.4,11.4,17.4l3.1,1.4   c1.9,0.8,4,1.3,6,1.3c5.3,0,10.2-2.7,13-7.2l10.5-17c3.2-5.2,4.6-11.4,3.9-17.5l-2.2-17.7c-0.1-0.5,0.2-0.9,0.5-1.2l20.3-13.8   c3.9-2.7,6.9-6.5,8.6-10.9l4.7-12.4c1.7-4.5,4.7-8.5,8.6-11.3l17.4-12.8c6.9-5.1,11-13.2,11.1-21.8V324c0-0.5,0.3-1,0.8-1.2   l14.4-6.1c7.6-3.3,11.2-12.1,8.2-19.8L380.1,293.3z M367.9,303.9l-14.4,6.1c-5.6,2.4-9.3,7.9-9.3,14v2.3c0,4.1-2,8-5.3,10.5   l-17.4,12.8c-6.1,4.5-10.8,10.6-13.5,17.7l-4.7,12.4c-0.7,1.7-1.8,3.2-3.4,4.3l-20.3,13.8c-4.8,3.2-7.3,8.8-6.6,14.5l2.2,17.8   c0.4,2.9-0.3,5.9-1.9,8.4l-10.5,17c-0.3,0.5-1,0.8-1.6,0.5l-3.1-1.4c-1.8-0.8-3-2.6-3-4.6v-27.2c0-4.5-2-8.8-5.4-11.7   c-0.5-0.4-0.6-1.2-0.2-1.8l6.8-8.4c4.3-5.2,4.6-12.6,0.8-18.2l-3.5-5.3c-0.2-0.4-0.3-0.8-0.1-1.2l3.9-9.5c3.3-7.8-0.4-16.7-8.2-20   c-0.8-0.4-1.7-0.6-2.6-0.8l-4.1-0.9c-0.3-0.1-0.6-0.3-0.8-0.5l-16.8-25.3c-1.3-2-1.8-4.3-1.3-6.7l1.3-6.9c0-0.2,0.1-0.4,0.2-0.5   l7-9.4c5-6.8,3.6-16.3-3.1-21.4c-2-1.5-4.3-2.5-6.8-2.8l-27.5-4.3c-1.8-0.3-3.5-1.1-4.9-2.4l-24.4-23.6c-4.3-4.1-9.7-6.7-15.6-7.4   l-3.1-0.4c-0.6-0.1-1-0.5-1.1-1l-4.2-23c-1.5-8-5-15.6-10.2-21.8l-10.1-12.1c-1-1.2-1.4-2.7-1.1-4.2l6.6-34.2   c0.9-4.5,0.4-9.1-1.4-13.3l-3.8-9.1c-3.3-7.8-12.2-11.4-20-8.1c-0.1,0-0.2,0.1-0.3,0.1l-8.6,3.9c-0.3,0.1-0.7,0.2-1,0l-7.4-2.8   c-5.5-2.1-11.7-0.9-16,3.2L51,127.6c-0.2,0.1-0.3,0.2-0.5,0.3L21,136.1c-2.4,0.7-4.9-0.5-5.9-2.8l-0.7-1.6c-1-2.3-0.2-5,1.9-6.3   l11.5-7.1c4.5-2.8,7.2-7.7,7.2-13v-9.9c0-3.1,1.6-6,4.3-7.6l32-19.8c2.8-1.8,6.2-2.4,9.5-1.7L99.4,70c7.1,1.4,14.2-2.3,17.1-8.9   l2-4.6c2.4-5.7,7.8-9.6,14-10.2l29.3-2.8c3.9-0.4,7.8,0,11.4,1.2l8.9,2.8c8,2.5,16.6-2,19.1-10c0.2-0.5,0.3-1,0.4-1.5   c0.8-3.6,3.9-6.3,7.6-6.4l39.1-1.4c2.7-0.2,5,1.9,5.2,4.6c0,0,0,0.1,0,0.1c0.2,2.6-1,5.1-3.1,6.6l-26.7,19.3   c-5.7,4.1-9.2,10.7-9.5,17.7l-0.1,1.7c-0.3,8.9,4.5,17.3,12.5,21.4L243,108c4.5,2.3,9.9,2.2,14.4-0.2l2.4-1.3   c5.5-3,8.6-9.1,7.8-15.3l-1-7.9c-0.1-0.6,0.3-1.3,1-1.4l5.3-1.3c2.4-0.6,5-0.1,7.1,1.2l22.5,14.8c3.2,2.1,5.5,5.2,6.7,8.7l7.6,22.5   c1.5,4.5-0.7,9.4-5,11.2l-15.1,6.3c-2.5,1.1-5.3,1.6-8,1.6l-13.7,0.1c-4.9,0-9.4,2.4-12.3,6.3l-15.7,21.6   c-3.3,4.5-5.1,9.9-5.2,15.4l-0.3,16.9c0,0.7-0.5,1.2-1.2,1.2l-4.3,0.3c-0.3,0-0.6-0.1-0.8-0.2l-17-12.4c-6.8-5-16.4-3.5-21.3,3.3   c-0.2,0.2-0.4,0.5-0.5,0.8l-8.9,13.9c-4.6,7.1-2.5,16.5,4.6,21.1c1.3,0.8,2.8,1.5,4.3,1.9l8.7,2.4c0.3,0.1,0.5,0.2,0.7,0.5   l10.2,13.4c4.3,5.7,12,7.6,18.5,4.6l8.1-3.7c0.2-0.1,0.5-0.1,0.7-0.1l69.2,11.3c2.6,0.4,5,2,6.3,4.3l4.2,7.2   c2.2,3.8,6,6.5,10.4,7.3l21.1,3.9c5.7,1,10.5,4.9,12.7,10.3l1.5,3.6C368.9,302.9,368.6,303.6,367.9,303.9z"/>
	<path d="M412.4,69c3.6-6.5,4.3-14.1,2.2-21.1l-3.8-12c-2.4-7.7-9-13.3-17-14.6l-19.2-2.9c-0.5-0.1-1.1-0.2-1.6-0.4L332.8,1.6   c-7.2-2.9-15.5-1.6-21.4,3.4l-3.2,2.7c-4.8,4-7.6,9.9-7.6,16.2v10.4c0,7.3,3.7,14,9.9,17.9l16,10c1.2,0.8,2.2,1.9,2.8,3.3   l10.4,25.2c1.4,3.3,3.1,6.4,5.2,9.2l19.3,26c4.3,5.8,11.1,9.3,18.4,9.3c0.6,0,1.2,0,1.8-0.1l1.3-0.1c10.5-0.8,18.3-9.9,17.5-20.4   c-0.1-0.8-0.2-1.6-0.3-2.4l-3.4-16.4c-0.3-1.7-0.1-3.4,0.7-4.9L412.4,69z M388,84.1c-2.4,4.4-3.2,9.6-2.2,14.5l3.4,16.4   c0.6,2.7-1.2,5.4-3.9,5.9c-0.2,0-0.4,0.1-0.6,0.1l-1.3,0.1c-3.1,0.2-6.1-1.1-7.9-3.6l-19.3-26c-1.4-1.9-2.6-4-3.5-6.2L342.2,60   c-1.7-4.1-4.6-7.5-8.3-9.8l-16-10c-2.1-1.3-3.3-3.6-3.3-6V23.8c0-2.1,0.9-4.1,2.5-5.4l3.2-2.7l0,0c2-1.7,4.8-2.1,7.2-1.1l40.3,16.3   c1.5,0.6,3.1,1.1,4.8,1.3l19.2,2.9c2.7,0.4,4.9,2.3,5.7,4.9l3.8,12c1,3.4,0.7,7.1-1,10.2L388,84.1z"/>
</g>
</svg>