<?xml version="1.0" encoding="UTF-8"?>
<!-- Generator: Adobe Illustrator 25.2.0, SVG Export Plug-In . SVG Version: 6.00 Build 0)  -->
<svg version="1.1" id="Calque_1" xmlns="http://www.w3.org/2000/svg" xmlns:xlink="http://www.w3.org/1999/xlink" x="0px" y="0px" viewBox="0 0 470 415" style="enable-background:new 0 0 470 415;" xml:space="preserve">
<g>
	<path d="M261.8,216.9l13.9,3.7c0.2,0.1,0.4,0.3,0.4,0.5v15.6c0,7.1,5.1,13.1,12,14.3l11.9,2.1c0.3,0,0.5,0.3,0.4,0.6l-1.1,12.1   c-0.5,5.7,1.2,11.5,4.7,16l10.3,13.4c0.8,1.1,1.8,2.1,2.9,2.9l11.5,8.4c6.5,4.7,15.6,3.3,20.3-3.1c1.8-2.5,2.8-5.5,2.8-8.6v-6.3   c0-4.6-1.4-9.1-4-12.9l-7.2-10.6c-0.1-0.2-0.1-0.5,0.1-0.7l2.3-2c0.2-0.1,0.4-0.2,0.6-0.1c6.5,3.1,14.2,0.9,18.2-5l7.2-10.8   c3-4.4,3.3-10.2,0.8-14.9l-3.6-6.7c-3-5.6-8.1-9.7-14.2-11.4l-4.6-1.3c-0.2-0.1-0.4-0.3-0.4-0.5l0.3-16.4c0-0.1,0.1-0.3,0.2-0.4   c0.1-0.1,0.3-0.1,0.4-0.1l21.1,1.1c7.6,0.4,14.9-2.9,19.5-9l10.4-13.7c3.4-4.5,5.7-9.7,6.7-15.2l2.3-13.2   c0.9-5.1,0.3-10.4-1.7-15.3l-6.2-14.6c-3.8-8.8-13.5-13.5-22.7-10.9l-4.5,1.3c-0.3,0.1-0.6-0.1-0.7-0.4c0,0,0,0,0,0l-3.1-13.4   c0-0.2,0-0.4,0.1-0.5l7.3-7.3c0.2-0.2,0.4-0.2,0.6-0.1l13.8,7.9c1.6,0.9,3.4,1.5,5.3,1.8l10,1.4c8,1.1,15.3-4.5,16.3-12.4   c0.2-1.2,0.2-2.5,0-3.8l-2.9-23.2c-0.6-4.5-3.2-8.5-7.2-10.8l-14.5-8.5l-4-12.1c-3.1-9.1-10.7-15.9-20.2-17.9l-27-5.6   c-7.9-1.6-15.5,3.4-17.2,11.3c-0.2,0.8-0.3,1.6-0.3,2.4l-0.8,17.9L309.9,52c-0.1,0.1-0.4,0.2-0.6,0.1l-14.2-5   c-11.8-4.1-24.7-2.9-35.6,3.2l-13.8,7.9c-0.2,0.1-0.4,0.1-0.6,0l-13.3-8.7c-5.3-3.4-11.7-4.5-17.8-3.1l-6,1.4   c-0.3,0.1-0.5-0.1-0.6-0.4l-2.8-9.1c-1.6-5.1-5.9-9-11.2-9.9l-33.6-6.2c-8-1.5-16,2.3-20,9.3l-5.7,10c-1.4,2.5-2.1,5.4-1.9,8.3   l0.4,5.3c0,0.2,0,0.3-0.2,0.4c-0.1,0.1-0.3,0.2-0.4,0.1l-6.5-1c-7.9-1.2-15.4,4.2-16.6,12.2c0,0.1,0,0.1,0,0.2l-2.1,15.1   c-0.5,3.7,0.4,7.5,2.7,10.6l4,5.5c0.1,0.2,0.1,0.4,0,0.6l-6.8,13.1c-0.1,0.2-0.2,0.3-0.4,0.3c-0.2,0-0.3,0-0.5-0.1l-11.3-10.6   c-0.1-0.1-0.2-0.3-0.2-0.5l1.7-8.6c0.8-3.8-0.1-7.8-2.2-11L79.9,60.8c-3.5-5.2-10-7.5-16-5.8l-11.3,3.1l-16-7.4   c-8.7-4-18.9-3.1-26.8,2.4l-1.7,1.2c-8,5.6-10.5,16.4-5.7,24.9l5.9,10.6c1.5,2.7,3.9,4.9,6.7,6.1l16.7,7.5c0.2,0.1,0.4,0.4,0.3,0.6   l-3.3,9.8c-1.5,4.4-3.8,8.5-6.8,12.1l-2.2,2.6c-5.3,6.3-7.5,14.6-5.9,22.7l3.3,17.1c0.6,3.3,2.4,6.3,5,8.4l7.7,6.4   c0.1,0.1,0.2,0.3,0.2,0.5l-1.8,16.4c-0.8,7.5,1.6,15,6.5,20.7l3.2,3.7c5.6,6.3,14.6,8.2,22.3,4.7l20.5-9.5c0.1-0.1,0.3-0.1,0.4,0   c0.1,0.1,0.3,0.2,0.3,0.3l1.8,7.4c1.9,7.8,9.8,12.6,17.6,10.7c1.5-0.4,2.8-0.9,4.1-1.7l22-13.4c9-5.5,11.8-17.2,6.3-26.2   c-0.8-1.2-1.7-2.4-2.7-3.4L117,179.7c-5.2-5.2-12.9-7-19.8-4.6l-3.2,1.1c-0.2,0.1-0.4,0-0.6-0.2l-8-9.7c-0.1-0.1-0.2-0.3-0.1-0.5   l2.4-8.7c0.6-2.1,2.5-3.6,4.7-3.7l11-0.3l27.1,8.7c0.2,0.1,0.3,0.2,0.3,0.3l2.5,8c4.3,13.6,11.8,26,21.9,36l6,5.9   c2.8,2.7,6.6,4.2,10.5,4.2l3.9-0.1h0.1c2.8,0,5,2.3,5,5c0,0.3,0,0.5-0.1,0.8l-1.4,8.8c-0.8,5.1-0.9,10.2-0.2,15.3l3.5,28.4   c0.3,2.5,1.3,4.9,2.8,6.9l10.3,13.8c4.8,6.4,13.9,7.7,20.3,2.9c1.7-1.3,3.1-2.9,4.1-4.8l11.6-21.9c2-3.8,2.3-8.3,0.6-12.3   l-5.4-13.4c-0.1-0.3,0-0.6,0.3-0.7l16.1-7.5c2.9-1.4,5.3-3.7,6.8-6.5l6-11.8C257.1,217.3,259.5,216.3,261.8,216.9z M243.6,213   l-6.3,12l-16.1,7.5c-7,3.3-10.2,11.5-7.3,18.6l5.4,13.4c0.1,0.1,0,0.3,0,0.4l-11.6,21.9c-0.1,0.2-0.2,0.3-0.4,0.3   c-0.2,0-0.4-0.1-0.5-0.2l-10.4-14.1l-3.5-28.4c-0.5-3.8-0.4-7.6,0.2-11.4l1.4-8.8c0.9-5.5-0.8-11.2-4.4-15.4   c-3.7-4.2-9.1-6.6-14.7-6.5l-3.9,0.1c-0.2,0-0.3,0-0.4-0.2l-6-5.9c-8.5-8.4-14.8-18.8-18.4-30.2l-2.5-8c-1.4-4.5-4.9-8-9.4-9.5   l-27-8.7c-1.6-0.5-3.3-0.8-5-0.7l-10.8,0.4c-8.4,0.2-15.6,6-17.7,14l-2.4,8.7c-1.2,4.6-0.2,9.4,2.8,13.1l8,9.7   c3.9,4.7,10.2,6.4,16,4.4l3.2-1.1c1.8-0.6,3.8-0.2,5.2,1.2l13.5,13.7c1.9,2,1.9,5.1,0,7.1c-0.3,0.3-0.6,0.5-0.9,0.7l-22,13.4   c-0.1,0.1-0.3,0.1-0.5,0c-0.2-0.1-0.3-0.2-0.3-0.4l-1.8-7.4c-1.9-7.8-9.8-12.6-17.6-10.7c-0.9,0.2-1.8,0.5-2.6,0.9l-20.6,9.5   c-2,0.9-4.4,0.4-5.9-1.2l-3.2-3.7c-2.4-2.7-3.5-6.4-3.1-10l1.8-16.4c0.5-4.8-1.4-9.6-5.1-12.8l-7.8-6.7l-3.3-17.1   c-0.8-3.9,0.3-7.9,2.8-10.9l2.2-2.6c4.2-4.9,7.4-10.5,9.4-16.6l3.3-9.8c2.4-7.1-0.9-14.9-7.8-17.9l-16.9-7.8l-6-10.6   c-1.3-2.2-0.6-5.1,1.5-6.6l1.7-1.2c3.8-2.6,8.7-3.1,12.9-1.1l16,7.4c3.2,1.5,6.7,1.8,10.1,0.8l11-3.1c0.2-0.1,0.5,0,0.6,0.2   l14.1,20.8c0.1,0.1,0.1,0.3,0.1,0.4l-1.7,8.6c-1,4.9,0.6,10,4.3,13.4l11.3,10.6c5.9,5.5,15,5.2,20.5-0.7c0.9-1,1.7-2.1,2.3-3.3   l6.8-13.1c2.5-4.9,2.1-10.8-1.2-15.2l-4-5.5c-0.1-0.1-0.1-0.3-0.1-0.4l2.1-15.1c0-0.1,0.1-0.3,0.2-0.4c0.1-0.1,0.3-0.1,0.4-0.1   l6.5,1c7.9,1.2,15.3-4.2,16.6-12.1c0.2-1.1,0.2-2.2,0.1-3.4l-0.4-5.6l5.7-10c1.1-1.9,3.2-2.8,5.3-2.5l33.5,6.2   c0.2,0,0.3,0.2,0.4,0.4l2.8,9.1c2.3,7.2,9.8,11.5,17.2,9.8l6-1.4c2.4-0.6,4.9-0.1,7,1.2l13.3,8.7c4.6,3,10.4,3.1,15.1,0.4l13.8-7.9   c7.3-4.2,16.1-5,24-2.2l14.2,5c5.4,1.9,11.5,0.4,15.4-3.8l18.8-20.1c2.4-2.5,3.8-5.9,3.9-9.3l0.7-17.5c0-0.2,0.1-0.3,0.2-0.4   c0.1-0.1,0.3-0.1,0.4-0.1l27,5.6c4.5,0.9,8.2,4.2,9.7,8.6l4,12.1c1.1,3.4,3.5,6.2,6.6,8l14.3,8.2c0.1,0.1,0.2,0.2,0.3,0.4l2.9,23.2   c0,0.2,0,0.3-0.2,0.4c-0.1,0.1-0.3,0.2-0.4,0.1l-10.2-1.4l-13.8-7.9c-5.7-3.2-12.8-2.3-17.5,2.3l-7.3,7.3c-3.5,3.5-5,8.6-3.9,13.5   l3.1,13.4c1.8,7.8,9.6,12.7,17.4,10.9c0.2-0.1,0.5-0.1,0.7-0.2l4.5-1.3c2.4-0.7,5,0.5,6,2.9l6.2,14.6c1,2.3,1.3,4.9,0.8,7.4   l-2.3,13.2c-0.6,3.3-2,6.4-4,9.1l-10.5,13.7c-1.8,2.3-4.7,3.7-7.6,3.5l-21.1-1.1c-3.9-0.2-7.8,1.2-10.7,3.9   c-2.9,2.7-4.5,6.5-4.6,10.4l-0.3,16.4c-0.1,6.6,4.3,12.5,10.6,14.2l4.6,1.3c2.4,0.7,4.4,2.3,5.6,4.5l3.6,6.7c0.1,0.2,0.1,0.4,0,0.5   l-7.3,10.8c-0.1,0.2-0.4,0.3-0.7,0.2c-5.2-2.4-11.4-1.6-15.7,2.2l-2.3,2c-5.5,4.8-6.6,13-2.5,19.1l7.2,10.6c1,1.5,1.6,3.3,1.6,5.1   v6.3c0,0.2-0.1,0.4-0.3,0.5c-0.2,0.1-0.4,0.1-0.6,0l-11.6-8.5l-10.3-13.4c-1.4-1.8-2-4-1.8-6.3l1.1-12.1   c0.7-7.5-4.5-14.3-11.9-15.6l-11.9-2.1c-0.2,0-0.4-0.3-0.4-0.5v-15.6c0-6.6-4.4-12.3-10.7-14l-13.9-3.7c-1.6-0.4-3.2-0.6-4.9-0.6   C253.4,202.7,246.8,206.7,243.6,213z"/>
	<path d="M417.5,250c-3.9-3.2-9-4.5-13.9-3.3l-1.9,0.5c-5.3,1.2-9.6,5.1-11.4,10.3l-11.9,34.3c-0.2,0.6-0.8,1.1-1.4,1.3l0,0   l-0.5,0.1c-7.7,1.7-13.1,8.5-13.1,16.4v4.6c0,4.7,2,9.1,5.6,12.1l8,6.9c4.4,3.8,10.2,5.3,15.8,4.3l3.7-0.7   c7.9-1.5,14-7.7,15.3-15.7l2.4-15c0.1-0.5,0.3-0.9,0.7-1.2l6.3-5.4c5.8-5,7.3-13.3,3.6-20l-2-3.6c-0.2-0.3-0.3-0.7-0.2-1.1   l0.6-11.8C423.5,258.1,421.4,253.2,417.5,250z M412.2,288.8l-6.3,5.4c-2.9,2.5-4.8,5.9-5.4,9.6l-2.4,15c-0.3,2.1-2,3.7-4,4.1   l-3.7,0.7c-1.5,0.3-3-0.1-4.2-1.1l-8-6.9c-0.4-0.4-0.7-0.9-0.7-1.5v-4.6c0-1.3,0.9-2.5,2.2-2.8l0.5-0.1c5.4-1.2,9.8-5.1,11.6-10.3   l11.9-34.3c0.2-0.6,0.8-1.1,1.4-1.3l1.9-0.5c0.6-0.2,1.2,0,1.7,0.4c0.5,0.4,0.7,1,0.7,1.6l-0.6,11.8c-0.2,3,0.5,6,2,8.7l2,3.6   C413.1,287.2,412.9,288.2,412.2,288.8L412.2,288.8z"/>
	<path d="M333.9,358l1.3-4.9c1.1-4.1,0.4-8.4-1.7-12l-5.7-9.7c-3.4-5.8-9.7-9.4-16.4-9.4H306c-0.4,0-0.8-0.1-1.1-0.4l-21-14.8   c-1.8-1.3-3.8-2.2-6-2.6l-5.1-1c-8.6-1.8-17.1,3.8-18.8,12.5c-0.7,3.3-0.3,6.7,1.1,9.7l4.9,10.9c3.5,7.9,9.2,14.6,16.3,19.5   l20.1,13.8c2.7,1.8,5.8,2.8,9,2.8h10.2C324.1,372.3,331.7,366.4,333.9,358L333.9,358z M321.6,349.6l-1.3,4.9   c-0.6,2.2-2.6,3.8-4.9,3.8h-10.2c-0.4,0-0.8-0.1-1.1-0.3l-20.1-13.8c-5-3.4-9-8.2-11.4-13.7l-4.9-10.9c-0.5-1,0-2.2,1-2.6   c0.2-0.1,0.5-0.2,0.8-0.2c0.2,0,0.3,0,0.5,0l5.1,1c0.3,0.1,0.5,0.2,0.7,0.3l21,14.9c2.7,1.9,5.9,2.9,9.2,2.9h5.4   c1.8,0,3.4,0.9,4.3,2.5l5.7,9.7C321.6,348.6,321.7,349.1,321.6,349.6L321.6,349.6z"/>
	<path d="M466.6,336.3c4.9-6.3,4.4-15.3-1.2-21l-3.1-3.2c-3.9-4-9.6-5.6-15-4.4l-8.7,2c-5,1.2-9.2,4.7-11.2,9.5l-7.6,18.6   c-3.5,8.4-1.6,18.1,4.7,24.7l6.7,7c3.6,3.8,8.8,5.5,13.9,4.7l7.4-1.1c8.2-1.2,13.8-8.9,12.6-17.1c-0.4-2.9-1.7-5.5-3.6-7.7   l-1.2-1.3c-0.6-0.7-0.7-1.8-0.1-2.5L466.6,336.3z M455.6,327.7l-6.4,8.2c-4.7,6.1-4.5,14.6,0.6,20.4l1.2,1.3c0.3,0.3,0.3,0.7,0.2,1   c-0.1,0.4-0.4,0.6-0.8,0.7l-7.4,1.1l0,0c-0.6,0.1-1.3-0.1-1.7-0.6l-6.7-7c-2.5-2.6-3.2-6.4-1.8-9.7l7.6-18.6c0.2-0.6,0.8-1,1.4-1.2   l8.7-2c0.1,0,0.3-0.1,0.4-0.1c0.5,0,1,0.2,1.4,0.6l3.1,3.2C456.1,325.8,456.2,326.9,455.6,327.7L455.6,327.7z"/>
	<path d="M417,370.4c-2.1-3.4-5.3-5.9-9.1-7.1l-9.3-2.8c-6.4-1.9-13.3,0.4-17.3,5.7l-4.2,5.6c-0.4,0.5-1,0.8-1.6,0.8h-3.9   c-0.5,0-0.9-0.2-1.3-0.5l-1.7-1.4c-4.1-3.6-9.5-5.2-14.9-4.6l-5.2,0.7l0,0c-5.6,0.7-10.7,3.9-13.7,8.8l-1.7,2.8   c-4.7,7.5-2.4,17.3,5,22c1.2,0.8,2.5,1.4,3.9,1.8l13.1,3.9l32.2,8.1c7.5,1.9,15.5,0.5,22-4l7.7-5.3c8.3-5.7,10.7-16.9,5.5-25.5   L417,370.4z M409,393.3l-7.7,5.3c-3.1,2.1-6.9,2.8-10.6,1.9l-31.9-8l-12.8-3.9c-1-0.3-1.6-1.4-1.3-2.4c0.1-0.2,0.1-0.3,0.2-0.5   l1.7-2.8c0.8-1.3,2.1-2.1,3.6-2.3l5.2-0.7c1.4-0.2,2.9,0.3,3.9,1.2l1.7,1.4c2.9,2.5,6.7,4,10.5,4h3.9c5,0,9.7-2.4,12.7-6.3l4.2-5.6   c0.5-0.7,1.3-0.9,2.1-0.7l9.3,2.8c0.5,0.1,0.9,0.5,1.1,0.9l5.4,9C411.8,388.9,411.2,391.8,409,393.3z"/>
</g>
</svg>