<?xml version="1.0" encoding="UTF-8"?>
<!-- Generator: Adobe Illustrator 25.2.0, SVG Export Plug-In . SVG Version: 6.00 Build 0)  -->
<svg version="1.1" id="Calque_1" xmlns="http://www.w3.org/2000/svg" xmlns:xlink="http://www.w3.org/1999/xlink" x="0px" y="0px" viewBox="0 0 470 420.5" style="enable-background:new 0 0 470 420.5;" xml:space="preserve">
<g>
	<path d="M455.4,276.4l-28.7-13.1c-1.6-0.7-2.3-2.7-1.6-4.3c0.1-0.1,0.1-0.2,0.2-0.4l11.3-18.2c6.4-10.4,6.9-23.4,1.5-34.3   l-9.7-19.2c-0.5-1.1-0.5-2.3,0.2-3.3l18.2-26.1c5.4-7.8,3.5-18.5-4.3-24c-1.4-1-3-1.8-4.7-2.3l-28.4-9c-1.3-0.4-2.3-1.7-2.3-3.1   v-8.5c0-5.9-3-11.5-8.1-14.6l-5.9-3.7c-0.5-0.3-1-0.8-1.2-1.4l-19.5-42.6c-0.2-0.4-0.3-0.8-0.3-1.2l-0.6-17.4   c-0.4-15-11.8-27.3-26.6-29.1l-4.1-0.5c-8.3-1-16.1,4-18.5,12l-24.4,78.4c-1.3,4.2-3.4,8-6.2,11.4l-12.3,14.7   c-1.1,1.4-3.2,1.5-4.5,0.4c-0.6-0.5-1-1.3-1.1-2.1l-3.9-35.6c-1.1-10.2-7.9-18.9-17.5-22.4l-6.6-2.4c-13-4.7-27.4,1.3-33.2,13.8   l-27.6,60.5c-0.2,0.4-0.4,0.8-0.8,1l-22.1,20.1c-10.3,9.3-15.8,22.9-14.9,36.7l0.7,12c0.6,9.5,8.8,16.7,18.3,16.1   c0.6,0,1.1-0.1,1.7-0.2l33.6-5.4c5.9-0.9,10.9-4.9,13.1-10.4l16.5-39.4c1.1-2.5,4-3.8,6.5-2.7c0.4,0.2,0.8,0.4,1.2,0.7l4.6,3.6   c0.9,0.7,1.3,1.8,1.2,2.9l-4.4,35.6c-0.1,0.8-0.5,1.5-1.1,2.1l-44.5,38.3c-0.5,0.4-1,0.6-1.6,0.7l-47.5,7.6   c-12.3,2-24.1,6.7-34.4,13.7l-25.9,17.7c-7,4.8-11.8,12.3-13.1,20.7l-2.2,14c-0.3,1.8-1.9,3-3.7,2.7c-0.1,0-0.2,0-0.4-0.1l0,0   l-19.7-5.5c-11.6-3.2-23.8,1.7-29.9,12L4.8,342.9c-7.7,12.9-6,29.4,4.3,40.5l6.2,6.7c2.9,3.1,6.8,5.1,11,5.5l35.6,3.5   c4.3,0.4,8.6-0.8,12-3.4l35-26.2c3-2.3,5.2-5.5,6.3-9.2l2.9-10.4c0.5-1.7,2.3-2.7,4-2.2c0.1,0,0.2,0,0.2,0.1l14.4,5.3   c4.2,1.5,8.8,1.4,12.9-0.4c1.6-0.7,3.5,0,4.2,1.7c0,0.1,0.1,0.2,0.1,0.3l5.4,17.2c1.5,4.6,4.8,8.4,9.1,10.4l13.2,6.2   c8.4,3.9,18.3,0.5,22.6-7.7l10.3-19.8c0.8-1.6,2.8-2.2,4.4-1.4c0,0,0,0,0,0l8.8,4.8c1.4,0.8,2,2.4,1.5,3.9l-0.6,1.6   c-3.6,10.4-1.9,21.9,4.4,30.9l8.8,12.4c2.9,4.1,7.3,6.7,12.3,7.2c0.6,0.1,1.2,0.1,1.8,0.1c4.3,0,8.5-1.6,11.7-4.6l18.9-17.5   c2.9-2.7,4.8-6.3,5.4-10.2l3.4-23.8c0.2-1.2,1-2.2,2.2-2.6l7.1-2.4c7-2.3,11.8-8.9,11.8-16.3v-34.2c0-2.8,2.2-5,5-5h33   c0.9,0,1.7,0.4,2.4,1l15.5,16.6c3.9,4.1,9.5,6.1,15.1,5.3l68-10.1c7.9-1.2,13.9-7.6,14.6-15.5C470.9,290.8,465.1,280.8,455.4,276.4   z M456,300c-0.1,1.5-1.3,2.7-2.7,2.9l-68,10.1c-1.1,0.2-2.1-0.2-2.8-1l-15.5-16.6c-3.3-3.5-7.8-5.5-12.6-5.5h-33   c-10.5,0-19,8.5-19,19v34.2c0,1.4-0.9,2.6-2.2,3.1l-7.1,2.4c-6.2,2-10.7,7.5-11.6,13.9l-3.4,23.7c-0.1,0.7-0.5,1.4-1,1.9   l-18.9,17.5c-1.3,1.2-3.4,1.1-4.6-0.2c-0.1-0.1-0.2-0.2-0.3-0.3l-8.7-12.4c-3.8-5.3-4.7-12.1-2.6-18.3l0.6-1.6   c2.8-8-0.6-16.7-8.1-20.7l-8.8-4.8c-8.4-4.5-18.8-1.5-23.4,6.9c-0.1,0.1-0.1,0.2-0.2,0.3l-10.3,19.8c-0.8,1.5-2.7,2.2-4.2,1.4   l-13.2-6.2c-0.8-0.4-1.4-1.1-1.7-2l-5.4-17.2c-2.9-9.1-12.5-14.1-21.6-11.2c-0.6,0.2-1.2,0.4-1.7,0.7c-0.8,0.3-1.6,0.4-2.4,0.1   l-14.4-5.3c-8.9-3.3-18.8,1.3-22.1,10.3c-0.2,0.4-0.3,0.9-0.4,1.3l-2.9,10.4c-0.2,0.7-0.6,1.3-1.2,1.7l-35,26.2   c-0.6,0.5-1.4,0.7-2.3,0.6l-35.6-3.5c-0.8-0.1-1.5-0.4-2.1-1l-6.2-6.7c-6.1-6.5-7.1-16.3-2.5-23.9l11.5-19.5   c2.9-4.9,8.6-7.2,14.1-5.7l19.7,5.5c9.2,2.6,18.7-2.8,21.2-11.9c0.2-0.6,0.3-1.3,0.4-1.9l2.2-14c0.7-4.6,3.3-8.7,7.2-11.4   l25.9-17.7c8.6-5.9,18.4-9.8,28.7-11.4l47.5-7.6c3.2-0.5,6.1-1.9,8.5-4l44.5-38.3c3.3-2.8,5.3-6.7,5.9-11l4.4-35.6   c0.7-6-1.7-11.9-6.4-15.6l-4.6-3.6c-8.2-6.5-20.2-5.1-26.7,3.1c-1.1,1.4-2,2.9-2.6,4.4l-16.5,39.4c-0.4,1-1.4,1.8-2.5,1.9   l-33.6,5.4c-0.9,0.1-1.8-0.1-2.5-0.7c-0.7-0.6-1.1-1.4-1.2-2.3l-0.7-12c-0.6-9.6,3.2-19,10.3-25.5l22.1-20.1   c1.7-1.6,3.1-3.5,4.1-5.6L225.3,74c2.7-5.9,9.5-8.7,15.6-6.5l6.6,2.4c4.6,1.7,7.9,5.9,8.4,10.8l3.9,35.6c1,9.5,9.5,16.3,19,15.3   c4.4-0.5,8.5-2.7,11.4-6.1l12.3-14.7c4-4.8,7-10.3,8.8-16.2l24.4-78.4c0.5-1.5,1.9-2.4,3.5-2.2l4.1,0.5c8,0.9,14.1,7.6,14.3,15.7   l0.6,17.4c0.1,2.3,0.6,4.5,1.6,6.6l19.5,42.6c1.4,3.1,3.7,5.7,6.5,7.4l5.9,3.7c0.9,0.6,1.5,1.6,1.5,2.7v8.5c0,7.5,4.9,14.2,12,16.4   l28.4,9c1.7,0.5,2.6,2.4,2.1,4.1c-0.1,0.3-0.2,0.6-0.4,0.9l-18.2,26.1c-3.6,5.2-4.1,12-1.2,17.7l9.7,19.2c3.3,6.5,3,14.3-0.9,20.6   l-11.3,18.3c-5,8.1-2.5,18.7,5.6,23.7c0.6,0.4,1.3,0.7,1.9,1l28.7,13.1C453.9,291,456.4,295.4,456,300L456,300z"/>
	<path d="M43.7,253.9l5.4,1.3c8.3,2,17.1,0.3,24-4.7l37-26.7c6.6-4.8,10.9-12.2,11.9-20.3l3.7-32.7c1.3-11.7-6.6-22.4-18.1-24.7   l-13.6-2.7c-9.3-1.8-18.7,2.3-23.6,10.4l-12.6,20.7l0,0c-1.9,3.1-4.8,5.4-8.3,6.6l-1.4,0.5c-11.5,3.7-19.5,14.1-20.1,26.1   l-1.3,23.1C25.9,241.6,33.1,251.3,43.7,253.9z M41.8,208.4c0.3-6.3,4.5-11.7,10.5-13.6l1.4-0.5c6.7-2.2,12.3-6.6,15.9-12.6   L82.3,161c1.9-3.1,5.4-4.6,8.9-3.9l13.6,2.7c4.4,0.9,7.3,4.9,6.9,9.4l-3.7,32.7c-0.5,4.2-2.7,8.1-6.2,10.6l-37,26.7   c-3.6,2.6-8.2,3.5-12.5,2.5l-5.4-1.3c-4-1-6.8-4.7-6.5-8.8L41.8,208.4z"/>
</g>
</svg>