<?xml version="1.0" encoding="utf-8"?>
<!-- Generator: Adobe Illustrator 25.2.0, SVG Export Plug-In . SVG Version: 6.00 Build 0)  -->
<svg version="1.1" id="Capa_1" xmlns="http://www.w3.org/2000/svg" xmlns:xlink="http://www.w3.org/1999/xlink" x="0px" y="0px"
	width="16px" height="16px" viewBox="0 0 365.3 245.1" style="enable-background:new 0 0 365.3 245.1;" xml:space="preserve">
<path d="M272.7,228.7c4.5,0,8.2,3.7,8.2,8.2s-3.7,8.2-8.2,8.2H112.3c-4.5,0-8.2-3.7-8.2-8.2s3.7-8.2,8.2-8.2H272.7z"/>
<path d="M296.2,120.2c36.7,0,68.4,29.2,68.4,41.4c0,12.1-21.9,18.3-46.9,18.3h-18.1c4.6,4.6,4.6,12,0,16.5c-4.6,4.6-12,4.6-16.5,0
	c-4.6-4.6-4.6-12,0-16.5c0,0,0,0,0,0h-67c-6.6,4.7-18.3,12.9-23.5,16.5c-5.1,3.5-11.7,6.5-18.2,6.5h-31l20.8-22.9h-47.4
	c-18.3,0-58.3-13.3-74.7-18.1c-16.4-4.8-18-10.2-21-18.6c-3-8.4-20.5-65.7-20.5-65.7L37.9,84c0,0,37.7,36.9,44.8,42.8
	c7.1,5.9,10.9,6,19,5.7C130.4,131.3,270.5,120.2,296.2,120.2L296.2,120.2z"/>
</svg>