<?xml version="1.0" encoding="utf-8"?>
<!-- Generator: Adobe Illustrator 25.2.0, SVG Export Plug-In . SVG Version: 6.00 Build 0)  -->
<svg version="1.1" id="Capa_1" xmlns="http://www.w3.org/2000/svg" xmlns:xlink="http://www.w3.org/1999/xlink" x="0px" y="0px"
	width="16px" height="16px" viewBox="0 0 365.3 245.1" style="enable-background:new 0 0 365.3 245.1;" xml:space="preserve">
<g>
	<g>
		<g>
			<path d="M38.3,156.1C38.3,156.2,38.3,156.2,38.3,156.1c-4.1,2.1-5.8,6.9-4,11.1c1.8,4.2,6.5,6.3,10.8,4.9l121.4-40.3l-22.8,37.1
				c-1.7,2.7-1.3,6.2,0.9,8.5c2.2,2.3,5.6,2.9,8.4,1.4l23.8-12.4c0.7-0.4,1.3-0.8,1.8-1.4l70.5-73.6l87.1-45.4
				c33-17.7,29.2-31.4,27.2-35.2c-1.5-2.9-4.9-6.9-12.5-8.9c-7.7-2.1-17.9-1.9-31.6,0.5c-4.6,0.8-7.1,0.7-9.7,0.7
				c-9.4-0.3-15.6,0.4-47,16.6L91.1,108.9L24.6,74.3c-2.5-1.3-5.5-1.3-8,0L5.4,80.1c-2.3,1.2-4,3.4-4.5,5.9
				c-0.5,2.6,0.1,5.2,1.7,7.3l46.2,57.6L38.3,156.1z"/>
		</g>
	</g>
</g>
<path d="M272.7,228.7c4.5,0,8.2,3.7,8.2,8.2s-3.7,8.2-8.2,8.2H112.3c-4.5,0-8.2-3.7-8.2-8.2s3.7-8.2,8.2-8.2H272.7z"/>
</svg>
