<?xml version="1.0" encoding="utf-8"?>
<!-- Generator: Adobe Illustrator 25.2.0, SVG Export Plug-In . SVG Version: 6.00 Build 0)  -->
<svg version="1.1" id="Calque_1" xmlns="http://www.w3.org/2000/svg" xmlns:xlink="http://www.w3.org/1999/xlink" x="0px" y="0px"
     viewBox="0 0 32.6 23.8" style="enable-background:new 0 0 32.6 23.8;" xml:space="preserve" width="71">
<style type="text/css">
	.st0{fill:#010202;}
</style>
    <g>
	<path class="st0" d="M20.1,23.8l-0.2-0.5c-0.4-1.1-0.7-3.2-1.1-5.4c-0.3-1.9-0.6-3.9-0.9-4.9c-0.8,0.4-1.9,1-3,1.7
		c-1.4,0.8-2.9,1.7-4.2,2.3c-0.4,0.2-0.8,0.3-1,0.4C9,17.6,9,17.6,8.9,18.1c-0.1,0.3-0.2,0.8-0.5,1.6c-0.1,0.4-0.2,0.7-0.3,1
		c-0.7,2-0.8,2.2-2.3,2.5l-0.9,0.2L5,18.4L3.5,17L0,14.9l0.2-0.4c0.9-1.8,2.1-1.5,3.5-1.1c0.3,0.1,0.7,0.2,1,0.3l0.5,0.1
		C7,14.1,7,14.1,8,13.4c0.7-0.5,1.9-1.4,4.3-2.7c0.6-0.4,1.3-0.7,1.9-1.1c0.4-0.2,0.8-0.5,1.3-0.7c-0.4-0.4-1-0.9-1.5-1.3L9.7,3.9
		C9,3.3,8.2,2.6,7.5,1.9L7.1,1.5l0.5-0.3c0,0,1.8-1.1,2.2-1.1C10.2,0,11.2,0.2,20,4.1c0.5,0.2,0.9,0.4,1.1,0.5
		c0.3,0.1,0.4,0.2,0.6,0.3C21.8,5,21.9,5.1,22,5.1c0.1,0,0.4-0.2,0.6-0.3c0.5-0.3,0.9-0.6,1.4-0.9c2.6-1.6,5.5-3.4,7.7-2.6
		c0.5,0.2,0.7,0.5,0.8,0.8c0.3,0.8-0.3,1.7-0.6,2.2c-0.7,1.2-3.5,2.8-6.5,4.4c-0.4,0.2-0.7,0.4-1,0.6c-0.3,1.6-0.9,7.6-1.3,10.6
		L23,21.3c-0.1,0.8-0.1,1-0.9,1.4l-0.7,0.4c-0.3,0.2-0.5,0.3-0.8,0.5L20.1,23.8z M18.4,11.6l0.2,0.4c0.4,0.7,0.8,2.6,1.2,5.7
		c0.3,1.8,0.6,3.6,0.8,4.7c0.1-0.1,0.2-0.1,0.3-0.2l0.8-0.4c0.1-0.1,0.3-0.1,0.3-0.2c0,0,0-0.2,0-0.4l0.2-1.6
		c0.3-3.3,1-9.5,1.3-10.9l0-0.2l0.2-0.1C24.1,8.3,24.5,8,25,7.8c1.9-1.1,5.5-3.1,6.1-4.1c0.4-0.5,0.6-1.1,0.5-1.3c0,0,0-0.1-0.2-0.2
		c-1.7-0.6-4.6,1.1-6.8,2.5c-0.5,0.3-1,0.6-1.5,0.9c-0.9,0.5-1.1,0.6-1.9,0.2c-0.1-0.1-0.3-0.2-0.5-0.3c-0.2-0.1-0.6-0.3-1.1-0.5
		c-2.2-1-8.9-4-9.7-4.1C9.8,1,9.2,1.4,8.7,1.7c0.5,0.5,1.1,1,1.6,1.4l4.3,3.6c0.8,0.6,1.7,1.5,2.1,1.9l0.5,0.5l-0.6,0.3
		c-0.6,0.3-1.2,0.7-1.8,1c-0.6,0.4-1.3,0.7-1.9,1.1c-2.3,1.3-3.5,2.1-4.2,2.7c-1.3,1-1.4,1-3.5,0.5l-0.5-0.1
		c-0.4-0.1-0.8-0.2-1.1-0.3c-1.2-0.3-1.7-0.4-2.1,0.2l2.8,1.7L6,18l-0.1,4.2c0.7-0.2,0.8-0.3,1.2-1.8c0.1-0.3,0.2-0.7,0.4-1.1
		c0.2-0.7,0.3-1.2,0.4-1.5c0.2-1,0.4-1.1,1.4-1.5c0.3-0.1,0.6-0.2,1-0.4c1.2-0.5,2.7-1.4,4.1-2.2c1.3-0.8,2.6-1.5,3.5-1.9L18.4,11.6
		z"/>
</g>
</svg>
