<svg id="Capa_1" enable-background="new 0 0 512 512" height="512" viewBox="0 0 512 512" width="512" xmlns="http://www.w3.org/2000/svg"><g><path d="m385.133 86.997c-2.182-3.515-1.076-8.107 2.411-10.261 3.515-2.183 8.135-1.106 10.289 2.409 8.022 12.954 14.315 27.071 18.539 42.039 4.11 14.484 6.321 29.764 6.321 45.524 0 29.736-7.824 59.925-21.543 87.11-11.878 23.499-28.149 44.788-47.566 61.597.368.34.736.681 1.105 1.049 3.996 3.997 6.463 9.497 6.463 15.591 0 6.066-2.467 11.594-6.463 15.59-3.997 3.997-9.525 6.463-15.591 6.463h-5.244l-25.087 46.319c4.961.652 9.439 2.919 12.812 6.321 3.997 3.997 6.464 9.496 6.464 15.562 0 6.095-2.467 11.594-6.464 15.591-2.268 2.268-5.017 4.053-8.078 5.159v46.886c0 6.066-2.495 11.594-6.491 15.591-3.997 3.997-9.497 6.463-15.563 6.463h-70.867c-6.095 0-11.594-2.466-15.591-6.463s-6.491-9.524-6.491-15.591v-46.886c-3.062-1.106-5.811-2.892-8.079-5.159-3.997-3.997-6.463-9.496-6.463-15.591 0-6.066 2.466-11.565 6.463-15.562 3.374-3.402 7.853-5.669 12.813-6.321l-25.087-46.319h-5.244c-6.066 0-11.594-2.466-15.591-6.463s-6.463-9.524-6.463-15.59c0-6.406 2.778-12.444 7.568-16.64-2.466-2.126-4.876-4.337-7.256-6.633-5.528-5.357-10.801-11.055-15.733-17.121-2.608-3.204-2.126-7.909 1.077-10.517 3.203-2.609 7.909-2.126 10.517 1.077 4.536 5.556 9.383 10.828 14.514 15.76 4.394 4.252 9.043 8.249 13.89 12.019h19.333c-10.517-15.137-19.361-34.158-25.909-55.928-8.107-26.986-12.728-58.253-12.728-91.588 0-30.218 3.827-58.764 10.573-83.963 4.479-16.697 10.29-31.976 17.149-45.298-12.954 7.03-24.774 15.874-35.093 26.22-27.468 27.44-44.448 65.368-44.448 107.265 0 15.024 2.154 30.161 6.18 44.816 4.167 15.137 10.29 29.906 18.085 43.711 2.041 3.601.794 8.164-2.806 10.177-3.572 2.041-8.163.793-10.176-2.807-8.391-14.825-15.024-30.756-19.503-47.14-4.422-16.073-6.775-32.514-6.775-48.757 0-46.035 18.652-87.705 48.813-117.895 30.19-30.161 71.86-48.813 117.895-48.813 22.421 0 44.59 4.507 65.169 13.267 20.807 8.844 39.43 21.798 54.879 37.843 2.862 2.976 2.778 7.71-.198 10.573-2.977 2.863-7.711 2.75-10.573-.227-10.8-11.196-23.329-20.778-37.134-28.261 6.859 13.323 12.67 28.602 17.149 45.327 6.774 25.2 10.573 53.745 10.573 83.963 0 33.335-4.621 64.602-12.728 91.588-6.548 21.771-15.393 40.792-25.909 55.928h19.332c21.147-16.328 38.778-38.296 51.195-62.93 12.699-25.087 19.928-52.952 19.928-80.363 0-14.428-2.013-28.347-5.727-41.5-3.881-13.606-9.579-26.448-16.837-38.211zm-171.582 223.003h34.952v-294.806c-14.287.68-28.063 3.374-41.046 7.739-10.914 15.505-19.956 35.83-26.277 59.471-6.435 23.924-10.063 51.166-10.063 80.08 0 31.89 4.394 61.71 12.104 87.308 7.425 24.775 17.885 45.497 30.33 60.208zm49.947 0h34.951c12.444-14.712 22.904-35.434 30.331-60.208 7.711-25.597 12.104-55.418 12.104-87.308 0-28.914-3.629-56.156-10.035-80.08-6.35-23.641-15.392-43.994-26.306-59.471-13.238-4.479-27.071-7.059-41.046-7.739v294.806zm53.32 44.108h-53.32v46.148h28.346zm-96.663 46.148h28.347v-46.148h-53.32zm118.944-75.26c-55.39 0-110.78 0-166.197 0-1.871 0-3.657.737-4.989 2.069-1.275 1.275-2.069 3.062-2.069 4.989s.794 3.685 2.069 4.96c1.304 1.304 3.062 2.098 4.989 2.098h166.197c1.928 0 3.713-.793 4.989-2.098 1.275-1.276 2.069-3.033 2.069-4.96 0-1.928-.794-3.714-2.069-4.989-1.333-1.332-3.118-2.069-4.989-2.069zm-100.093 104.401c4.138 0 7.512 3.345 7.512 7.483 0 4.139-3.374 7.512-7.512 7.512h-25.484v45.554c0 1.928.793 3.713 2.069 4.989s3.033 2.069 4.989 2.069h70.867c1.928 0 3.686-.793 4.961-2.069 1.275-1.304 2.098-3.061 2.098-4.989v-45.554h-25.512c-4.139 0-7.512-3.373-7.512-7.512s3.373-7.483 7.512-7.483h32.996c1.927 0 3.713-.822 4.988-2.098 1.276-1.276 2.069-3.033 2.069-4.989 0-1.928-.793-3.685-2.069-4.96-1.275-1.276-3.061-2.098-4.988-2.098h-99.98c-1.927 0-3.685.822-4.989 2.098-1.276 1.275-2.069 3.033-2.069 4.96 0 1.956.794 3.713 2.069 4.989 1.304 1.275 3.061 2.098 4.989 2.098z"/></g></svg>