<?xml version="1.0" encoding="utf-8"?>
<!-- Generator: Adobe Illustrator 25.2.0, SVG Export Plug-In . SVG Version: 6.00 Build 0)  -->
<svg version="1.1" id="iconos" xmlns="http://www.w3.org/2000/svg" xmlns:xlink="http://www.w3.org/1999/xlink" x="0px" y="0px"
	 viewBox="0 0 370.3 370.3" style="enable-background:new 0 0 370.3 370.3;" xml:space="preserve">
<style type="text/css">
	.st0{fill:#010001;}
</style>
<g>
	<path class="st0" d="M337.7,315.7h-15.1V197c0-0.8-0.3-1.6-0.9-2.2c-0.6-0.6-1.4-0.9-2.2-0.9h-10.1v-13.8c0-0.8-0.3-1.6-0.9-2.2
		c-0.6-0.6-1.4-0.9-2.2-0.9h-12.8v-25.5c0-0.8-0.3-1.6-0.9-2.2s-1.4-0.9-2.2-0.9H284v-9.7c0-1.7-1.4-3.1-3.1-3.1
		c-1.7,0-3.1,1.4-3.1,3.1v9.7h-6.2c-0.8,0-1.6,0.3-2.2,0.9c-0.6,0.6-0.9,1.4-0.9,2.2V177h-12.8c-0.8,0-1.6,0.3-2.2,0.9
		c-0.6,0.6-0.9,1.4-0.9,2.2v13.8h-7v-42.5c0-0.8-0.3-1.6-0.9-2.2c-0.6-0.6-1.4-0.9-2.2-0.9h-15.5v-20.6c0-0.8-0.3-1.6-0.9-2.2
		s-1.4-0.9-2.2-0.9h-19.2v-37c0-0.8-0.3-1.6-0.9-2.2c-0.6-0.6-1.4-0.9-2.2-0.9h-10V69.5c0-1.7-1.4-3.1-3.1-3.1
		c-1.7,0-3.1,1.4-3.1,3.1v14.8h-10c-0.8,0-1.6,0.3-2.2,0.9c-0.6,0.6-0.9,1.4-0.9,2.2v37h-19.2c-0.8,0-1.6,0.3-2.2,0.9
		c-0.6,0.6-0.9,1.4-0.9,2.2v20.6h-15.5c-0.8,0-1.6,0.3-2.2,0.9c-0.6,0.6-0.9,1.4-0.9,2.2v42.5h-7v-13.8c0-0.8-0.3-1.6-0.9-2.2
		c-0.6-0.6-1.4-0.9-2.2-0.9h-12.8v-25.5c0-0.8-0.3-1.6-0.9-2.2c-0.6-0.6-1.4-0.9-2.2-0.9h-6.2v-9.7c0-1.7-1.4-3.1-3.1-3.1
		s-3.1,1.4-3.1,3.1v9.7h-6.2c-0.8,0-1.6,0.3-2.2,0.9c-0.6,0.6-0.9,1.4-0.9,2.2V177H70c-0.8,0-1.6,0.3-2.2,0.9
		c-0.6,0.6-0.9,1.4-0.9,2.2v13.8H56.7c-0.8,0-1.6,0.3-2.2,0.9c-0.6,0.6-0.9,1.4-0.9,2.2v118.7H31.9c-1.7,0-3.1,1.4-3.1,3.1
		c0,1.7,1.4,3.1,3.1,3.1h305.8c1.7,0,3.1-1.4,3.1-3.1C340.8,317.1,339.4,315.7,337.7,315.7z M59.8,200.2h70.9v115.6H59.8V200.2z
		 M101.5,177H89.1v-22.4h12.4V177z M117.5,183.2v10.6H73.1v-10.6H117.5z M137.1,154.5h102v128.2h-102V154.5z M198,124.5h-19.9V90.6
		H198V124.5z M220.4,130.8v17.4h-64.7v-17.4H220.4z M287,177h-12.4v-22.4H287V177z M303,183.2v10.6h-44.3v-10.6H303z M316.3,200.2
		v115.6h-70.9v-29.9c0,0,0,0,0,0c0,0,0,0,0,0v-85.7H316.3z M172,315.7V289h29.5v26.8H172z M137.1,315.7V289h28.6v26.8H137.1z
		 M207.8,289H239v26.8h-31.3V289z"/>
	<path class="st0" d="M149.1,273.4H227c1.7,0,3.1-1.4,3.1-3.1c0-1.7-1.4-3.1-3.1-3.1h-77.9c-1.7,0-3.1,1.4-3.1,3.1
		C146,272,147.4,273.4,149.1,273.4z"/>
	<path class="st0" d="M197.7,259h20.6c3.5,0,6.3-2.8,6.3-6.3v-17.3c0-3.5-2.8-6.3-6.3-6.3h-20.6c-3.5,0-6.3,2.8-6.3,6.3v17.3
		C191.4,256.2,194.2,259,197.7,259z M197.7,235.5h20.6v17.3h-20.6V235.5z"/>
	<path class="st0" d="M225.5,204.3c0-3.5-2.8-6.3-6.3-6.3h-20.6c-3.5,0-6.3,2.8-6.3,6.3v17.3c0,3.5,2.8,6.3,6.3,6.3h20.6
		c3.5,0,6.3-2.8,6.3-6.3V204.3z M198.6,204.3h20.6v17.3h-20.6V204.3z"/>
	<path class="st0" d="M192.3,190.6c0,3.5,2.8,6.3,6.3,6.3h20.6c3.5,0,6.3-2.8,6.3-6.3v-17.3c0-3.5-2.8-6.3-6.3-6.3h-20.6
		c-3.5,0-6.3,2.8-6.3,6.3V190.6z M219.3,190.6h-20.6v-17.3h20.6V190.6z"/>
	<path class="st0" d="M155,259.7h20.6c3.5,0,6.3-2.8,6.3-6.3v-17.3c0-3.5-2.8-6.3-6.3-6.3H155c-3.5,0-6.3,2.8-6.3,6.3v17.3
		C148.7,256.9,151.5,259.7,155,259.7z M175.6,253.4H155v-17.3h20.6V253.4z"/>
	<path class="st0" d="M155.9,228.5h20.6c3.5,0,6.3-2.8,6.3-6.3V205c0-3.5-2.8-6.3-6.3-6.3h-20.6c-3.5,0-6.3,2.8-6.3,6.3v17.3
		C149.7,225.7,152.5,228.5,155.9,228.5z M155.9,205h20.6v17.3h-20.6V205z"/>
	<path class="st0" d="M149.7,191.3c0,3.5,2.8,6.3,6.3,6.3h20.6c3.5,0,6.3-2.8,6.3-6.3v-17.3c0-3.5-2.8-6.3-6.3-6.3h-20.6
		c-3.5,0-6.3,2.8-6.3,6.3V191.3z M155.9,174.1h20.6v17.3h-20.6V174.1z"/>
	<path class="st0" d="M79.5,218.4V217c0-2.2-1.8-4.1-4.1-4.1h-1.4c-2.2,0-4.1,1.8-4.1,4.1l0,0v1.4c0,2.2,1.8,4.1,4.1,4.1h1.4
		C77.7,222.4,79.5,220.6,79.5,218.4z"/>
	<path class="st0" d="M93.4,222.4h1.4c2.2,0,4.1-1.8,4.1-4.1V217c0-2.2-1.8-4.1-4.1-4.1h-1.4c-2.2,0-4.1,1.8-4.1,4.1v1.4
		C89.4,220.6,91.2,222.4,93.4,222.4z"/>
	<path class="st0" d="M108.8,217v1.4c0,2.2,1.8,4.1,4.1,4.1h1.4c2.2,0,4.1-1.8,4.1-4.1V217c0-2.2-1.8-4.1-4.1-4.1h-1.4
		C110.6,212.9,108.8,214.7,108.8,217z"/>
	<path class="st0" d="M74.1,241.7h1.4c2.2,0,4.1-1.8,4.1-4.1v-1.4c0-2.2-1.8-4.1-4.1-4.1h-1.4c-2.2,0-4.1,1.8-4.1,4.1v1.4
		C70,239.9,71.8,241.7,74.1,241.7z"/>
	<path class="st0" d="M93.4,241.7h1.4c2.2,0,4.1-1.8,4.1-4.1v-1.4c0-2.2-1.8-4.1-4.1-4.1h-1.4c-2.2,0-4.1,1.8-4.1,4.1v1.4
		C89.4,239.9,91.2,241.7,93.4,241.7z"/>
	<path class="st0" d="M118.3,237.7v-1.4c0-2.2-1.8-4.1-4.1-4.1h-1.4c-2.2,0-4.1,1.8-4.1,4.1v1.4c0,2.2,1.8,4.1,4.1,4.1h1.4
		C116.5,241.7,118.3,239.9,118.3,237.7z"/>
	<path class="st0" d="M74.1,261h1.4c2.2,0,4.1-1.8,4.1-4.1v-1.4c0-2.2-1.8-4.1-4.1-4.1h-1.4c-2.2,0-4.1,1.8-4.1,4.1v1.4
		C70,259.2,71.8,261,74.1,261z"/>
	<path class="st0" d="M94.8,251.5h-1.4c-2.2,0-4.1,1.8-4.1,4.1v1.4c0,2.2,1.8,4.1,4.1,4.1h1.4c2.2,0,4.1-1.8,4.1-4.1v-1.4
		C98.9,253.3,97.1,251.5,94.8,251.5z"/>
	<path class="st0" d="M118.3,256.9v-1.4c0-2.2-1.8-4.1-4.1-4.1h-1.4c-2.2,0-4.1,1.8-4.1,4.1v1.4c0,2.2,1.8,4.1,4.1,4.1h1.4
		C116.5,261,118.3,259.2,118.3,256.9z"/>
	<path class="st0" d="M75.4,270.8h-1.4c-2.2,0-4.1,1.8-4.1,4.1v1.4c0,2.2,1.8,4.1,4.1,4.1h1.4c2.2,0,4.1-1.8,4.1-4.1v-1.4
		C79.5,272.6,77.7,270.8,75.4,270.8z"/>
	<path class="st0" d="M94.8,270.8h-1.4c-2.2,0-4.1,1.8-4.1,4.1v1.4c0,2.2,1.8,4.1,4.1,4.1h1.4c2.2,0,4.1-1.8,4.1-4.1v-1.4
		C98.9,272.6,97.1,270.8,94.8,270.8z"/>
	<path class="st0" d="M118.3,276.2v-1.4c0-2.2-1.8-4.1-4.1-4.1h-1.4c-2.2,0-4.1,1.8-4.1,4.1v1.4c0,2.2,1.8,4.1,4.1,4.1h1.4
		C116.5,280.3,118.3,278.5,118.3,276.2z"/>
	<path class="st0" d="M75.4,290h-1.4c-2.2,0-4.1,1.8-4.1,4.1v1.4c0,2.2,1.8,4.1,4.1,4.1h1.4c2.2,0,4.1-1.8,4.1-4.1v-1.4
		C79.5,291.9,77.7,290,75.4,290z"/>
	<path class="st0" d="M94.8,290h-1.4c-2.2,0-4.1,1.8-4.1,4.1v1.4c0,2.2,1.8,4.1,4.1,4.1h1.4c2.2,0,4.1-1.8,4.1-4.1v-1.4
		C98.9,291.9,97.1,290,94.8,290z"/>
	<path class="st0" d="M114.2,290h-1.4c-2.2,0-4.1,1.8-4.1,4.1v1.4c0,2.2,1.8,4.1,4.1,4.1h1.4c2.2,0,4.1-1.8,4.1-4.1v-1.4
		C118.3,291.9,116.5,290,114.2,290z"/>
	<path class="st0" d="M255.5,216.4L255.5,216.4c0,2.6,2.1,4.8,4.8,4.8h0c2.6,0,4.8-2.1,4.8-4.8v0c0-2.6-2.1-4.8-4.8-4.8h0
		C257.6,211.6,255.5,213.7,255.5,216.4z"/>
	<path class="st0" d="M279.7,221.1L279.7,221.1c2.6,0,4.8-2.1,4.8-4.8v0c0-2.6-2.1-4.8-4.8-4.8h0c-2.6,0-4.8,2.1-4.8,4.8v0
		C274.9,219,277,221.1,279.7,221.1z"/>
	<path class="st0" d="M294.3,216.4L294.3,216.4c0,2.6,2.1,4.8,4.8,4.8h0c2.6,0,4.8-2.1,4.8-4.8v0c0-2.6-2.1-4.8-4.8-4.8h0
		C296.4,211.6,294.3,213.7,294.3,216.4z"/>
	<path class="st0" d="M260.3,240.4L260.3,240.4c2.6,0,4.8-2.1,4.8-4.8v0c0-2.6-2.1-4.8-4.8-4.8h0c-2.6,0-4.8,2.1-4.8,4.8v0
		C255.5,238.3,257.6,240.4,260.3,240.4z"/>
	<path class="st0" d="M279.7,240.4L279.7,240.4c2.6,0,4.8-2.1,4.8-4.8v0c0-2.6-2.1-4.8-4.8-4.8h0c-2.6,0-4.8,2.1-4.8,4.8v0
		C274.9,238.3,277,240.4,279.7,240.4z"/>
	<path class="st0" d="M299.1,230.9L299.1,230.9c-2.6,0-4.8,2.1-4.8,4.8v0c0,2.6,2.1,4.8,4.8,4.8h0c2.6,0,4.8-2.1,4.8-4.8v0
		C303.8,233,301.7,230.9,299.1,230.9z"/>
	<path class="st0" d="M260.3,259.7L260.3,259.7c2.6,0,4.8-2.1,4.8-4.8v0c0-2.6-2.1-4.8-4.8-4.8h0c-2.6,0-4.8,2.1-4.8,4.8v0
		C255.5,257.5,257.6,259.7,260.3,259.7z"/>
	<path class="st0" d="M279.7,250.2L279.7,250.2c-2.6,0-4.8,2.1-4.8,4.8v0c0,2.6,2.1,4.8,4.8,4.8h0c2.6,0,4.8-2.1,4.8-4.8v0
		C284.4,252.3,282.3,250.2,279.7,250.2z"/>
	<path class="st0" d="M299.1,250.2L299.1,250.2c-2.6,0-4.8,2.1-4.8,4.8v0c0,2.6,2.1,4.8,4.8,4.8h0c2.6,0,4.8-2.1,4.8-4.8v0
		C303.8,252.3,301.7,250.2,299.1,250.2z"/>
	<path class="st0" d="M260.3,279L260.3,279c2.6,0,4.8-2.1,4.8-4.8v0c0-2.6-2.1-4.8-4.8-4.8h0c-2.6,0-4.8,2.1-4.8,4.8v0
		C255.5,276.8,257.6,279,260.3,279z"/>
	<path class="st0" d="M279.7,269.4L279.7,269.4c-2.6,0-4.8,2.1-4.8,4.8v0c0,2.6,2.1,4.8,4.8,4.8h0c2.6,0,4.8-2.1,4.8-4.8v0
		C284.4,271.6,282.3,269.4,279.7,269.4z"/>
	<path class="st0" d="M299.1,269.4L299.1,269.4c-2.6,0-4.8,2.1-4.8,4.8v0c0,2.6,2.1,4.8,4.8,4.8h0c2.6,0,4.8-2.1,4.8-4.8v0
		C303.8,271.6,301.7,269.4,299.1,269.4z"/>
	<path class="st0" d="M260.3,288.7L260.3,288.7c-2.6,0-4.8,2.1-4.8,4.8v0c0,2.6,2.1,4.8,4.8,4.8h0c2.6,0,4.8-2.1,4.8-4.8v0
		C265,290.8,262.9,288.7,260.3,288.7z"/>
	<path class="st0" d="M279.7,288.7L279.7,288.7c-2.6,0-4.8,2.1-4.8,4.8v0c0,2.6,2.1,4.8,4.8,4.8h0c2.6,0,4.8-2.1,4.8-4.8v0
		C284.4,290.8,282.3,288.7,279.7,288.7z"/>
	<path class="st0" d="M299.1,288.7L299.1,288.7c-2.6,0-4.8,2.1-4.8,4.8v0c0,2.6,2.1,4.8,4.8,4.8h0c2.6,0,4.8-2.1,4.8-4.8v0
		C303.8,290.8,301.7,288.7,299.1,288.7z"/>
</g>
</svg>
