<?xml version="1.0" encoding="utf-8"?>
<!-- Generator: Adobe Illustrator 25.2.0, SVG Export Plug-In . SVG Version: 6.00 Build 0)  -->
<svg version="1.1" id="Calque_1" xmlns="http://www.w3.org/2000/svg" xmlns:xlink="http://www.w3.org/1999/xlink" x="0px" y="0px"
	 viewBox="0 0 376 376" style="enable-background:new 0 0 376 376;" xml:space="preserve">
<g>
	<path d="M179.4,278.6c-2.8,0-5.2-2.3-5.2-5.2V59.2c0-2.8,2.3-5.2,5.2-5.2c2.8,0,5.2,2.3,5.2,5.2v214.2
		C184.5,276.2,182.2,278.6,179.4,278.6z"/>
</g>
<g>
	<path d="M307.7,185.8H179.4c-2.8,0-5.2-2.3-5.2-5.2s2.3-5.2,5.2-5.2h128.3c0.8,0,1.8-0.5,2.1-0.8c1.5-1.5,2.3-4.1,1.1-5.3
		l-38.6-31.8c-0.4-0.3-0.7-0.7-1-1.1c-3.4-5.1-3.4-12,0-17.2c0.3-0.4,0.6-0.8,1-1.1l38.2-31.4c0.2-0.3,0.3-0.6,0.5-0.9
		c0.7-1.2,0.7-1.3,0.7-1.5c0-1.8-0.5-4-2.9-4H179.4c-2.8,0-5.2-2.3-5.2-5.2s2.3-5.2,5.2-5.2h129.5c7.6,0,13.2,6,13.2,14.3
		c0,3.1-1.2,5-2.1,6.7l-0.7,1.4c-0.3,0.6-0.8,1.2-1.3,1.7l-38.3,31.5c-0.7,1.5-0.7,3.2,0,4.6l38.3,31.5c5.5,5.5,5,14.4-0.8,20.2
		C314.7,184.3,311,185.8,307.7,185.8z M314.5,90.1h0.1H314.5z"/>
</g>
<g>
	<path d="M179.4,322.1c-71.5,0-125.5-20.9-125.5-48.7c0-21.8,34.6-40,88.2-46.4c2.9-0.3,5.4,1.7,5.7,4.5c0.3,2.8-1.7,5.4-4.5,5.7
		c-45.8,5.4-79.1,20.6-79.1,36.1c0,18.1,47.3,38.4,115.1,38.4s115.1-20.2,115.1-38.4c0-13.2-27.9-29.9-81.4-36.1
		c-2.8-0.3-4.9-2.9-4.5-5.7c0.3-2.8,2.9-4.8,5.7-4.5c55,6.4,90.5,24.6,90.5,46.4C304.8,301.2,250.9,322.1,179.4,322.1z"/>
</g>
</svg>
