<?xml version="1.0" encoding="utf-8"?>
<!-- Generator: Adobe Illustrator 25.2.0, SVG Export Plug-In . SVG Version: 6.00 Build 0)  -->
<svg version="1.1" id="Layer_1" xmlns="http://www.w3.org/2000/svg" xmlns:xlink="http://www.w3.org/1999/xlink" x="0px" y="0px"
	 viewBox="0 0 338 338" style="enable-background:new 0 0 338 338;" xml:space="preserve">
<g>
	<path d="M285.1,79.9c-18.7,0-34-15.2-34-34s15.2-34,34-34c18.7,0,34,15.2,34,34S303.8,79.9,285.1,79.9z M285.1,23.1
		c-12.8,0-22.9,10.1-22.9,22.9s10.1,22.9,22.9,22.9c12.8,0,22.9-10.1,22.9-22.9S297.9,23.1,285.1,23.1z"/>
</g>
<g>
	<path d="M169.5,266.3c-1.3,0-2.6-0.5-3.7-1.4c-2.3-2-2.4-5.5-0.4-7.8c0.2-0.3,23.5-26.1,45.3-52.9c6.6-8.1,9.5-15.7,8.7-22.8
		c-1.2-11.2-11.6-19.3-15.5-22.4c-1.9-1.5-8.2-6.2-27.6-20.1c-1.5-1-2.3-2.7-2.3-4.6c0-1.8,0.9-3.5,2.4-4.5l32.2-22.1
		c1.8-1.3,4.2-1.3,6.1-0.1c1.9,1.2,2.8,3.4,2.5,5.6c-1.1,6.5-2.2,18.9-0.2,24.4c2.3,7,41.6,24,54.5,29.6c6,2.5,9.6,2.8,11.1,2.6
		c-0.5-1.4-2.3-4.5-7.2-8.4c-5.5-4.5-32.4-20.3-42.3-26.1c-2.4-1.4-3.4-4.4-2.3-7c0.1-0.3,14.1-33.3,14.1-49.6
		c0-14.5-14.6-22.1-24.4-23.6c-45.7-7-83.2,48.8-83.6,49.4c-6,8.3-8.2,16.9-6.7,25.6c1.9,10.5,9.2,19.7,15.2,23.7
		c4.3,2.8,8.7,5.7,13,8.4c7.2,4.6,14,8.9,18.9,12.6c14.1,10.6,9.1,21.7,4.9,27.3c-5.7,7.6-36.7,46.5-38,48.1
		c-1.9,2.4-5.4,2.8-7.8,0.9c-2.4-1.9-2.8-5.4-0.9-7.8c0.3-0.4,32.2-40.5,37.8-47.9c3.1-4.1,3.5-7.2-2.7-11.8
		c-4.6-3.4-11.2-7.7-18.2-12.1c-4.3-2.8-8.8-5.7-13.1-8.5c-7.6-5-17.3-16.2-20-30.9c-2.1-11.6,0.8-23.3,8.5-33.8
		c1.5-2.3,41.5-62,94.4-54c13.6,2.1,33.8,13.1,33.8,34.5c0,14.8-9.1,39.3-13.1,49.4c10,5.8,33.6,19.8,39.5,24.6
		c10.1,8.1,13.9,16.7,10.1,22.9c-1.8,3-7.8,9-25.3,1.6c-42.9-18.6-57.7-27.4-60.6-36.2c-1.7-4.8-1.9-11.6-1.6-17.5l-15.8,10.8
		c11.9,8.5,19.2,13.8,21.6,15.8c7.6,6,18,15.7,19.6,29.8c1.1,10.2-2.6,20.6-11.2,31c-21.9,27-45.4,53-45.7,53.3
		C172.5,265.7,171,266.3,169.5,266.3z"/>
</g>
<g>
	<path d="M281.2,325.9c-8.6,0-16.5-2.2-21.7-4.5L22.1,192.3c-2.7-1.5-3.7-4.8-2.2-7.5c1.5-2.7,4.8-3.7,7.5-2.2l236.9,128.9
		c0.7,0.3,25.5,10.9,38.4-6.6c1.8-2.5,5.3-3,7.7-1.2c2.5,1.8,3,5.3,1.2,7.7C303.5,322.5,291.9,325.9,281.2,325.9z"/>
</g>
<g>
	<path d="M204.2,131.1c-1,0-1.9-0.2-2.8-0.8l-127-74.6c-2.6-1.5-3.5-4.9-2-7.6c1.5-2.6,4.9-3.5,7.6-2l127,74.6
		c2.6,1.5,3.5,4.9,2,7.6C208,130.1,206.1,131.1,204.2,131.1z"/>
</g>
</svg>
