<?xml version="1.0" encoding="utf-8"?>
<!-- Generator: Adobe Illustrator 25.2.0, SVG Export Plug-In . SVG Version: 6.00 Build 0)  -->
<svg version="1.1" id="cyclist2" xmlns="http://www.w3.org/2000/svg" xmlns:xlink="http://www.w3.org/1999/xlink" x="0px" y="0px"
	 viewBox="0 0 512 512" style="enable-background:new 0 0 512 512;" xml:space="preserve">
<g>
	<path d="M376.2,291.8c-9.5,0-18.6,1.7-27.1,4.6l-23.6-51.2c0.4-0.8,0.6-1.7,0.6-2.7c0-12.2-7.3-22.8-18.6-27.2
		c-27.5-10.6-45.3-24.6-48.8-38.6c-3.1-12.4-9.2-19.7-16.1-24.1c1.8,0.3,3.6,0.6,5.4,0.6c18.8,0,34-14.9,34.7-33.5h17.3
		c2.8,0,5.3-1.7,6.3-4.3c1-2.6,0.4-5.5-1.6-7.5l-17.6-17c-15.7-15.2-36.6-23.5-58.8-23.5h-12.4c-14.8,0-26.9,11.7-26.9,26.1
		c0,13.5,10.6,24.5,24.1,25.9c0.4,11.7,6.5,22,15.6,28c-6.2-1.1-11.8-0.7-14.8-0.3c-2.8,0.4-5.5,1.3-8,2.9
		c-16.5,10.2-70.7,46.4-76.4,85.7v0c-1.3,9.1,0.1,17.9,4.1,25.9c8.8,17.6,23.1,29.7,38,37.9l-0.3,0.4c-10.8-5.2-22.8-8.1-35.6-8.1
		c-45.7,0-82.9,37.2-82.9,82.9s37.2,82.9,82.9,82.9c44.2,0,80.4-34.8,82.7-78.5h11.9v13.7c0,3.8,3.1,6.8,6.8,6.8h41
		c3.8,0,6.8-3.1,6.8-6.8v-0.9c0-11.5-7.4-21.2-17.6-24.8l57.4-90.6l11.7,25.4c-25.8,14.1-43.3,41.4-43.3,72.8
		c0,45.7,37.2,82.9,82.9,82.9s82.9-37.2,82.9-82.9S421.9,291.8,376.2,291.8L376.2,291.8z M238.3,119.7l4.8,19.2
		c-8.9-2.1-15.6-9.8-16.2-19.2H238.3z M256.8,137.6l-4.5-17.9h16.7C268.5,127.6,263.7,134.4,256.8,137.6z M202.7,93.6
		c0-6.9,5.9-12.5,13.2-12.5h12.4c18.4,0,36.4,7.2,49.4,19.7l5.5,5.3h-67.2C208.7,106,202.7,100.5,202.7,93.6L202.7,93.6z
		 M213.2,161.6c0.9-0.5,1.7-0.8,2.6-1c8.9-1.2,24.6-0.2,29.5,19.4c6,23.8,34.3,39.2,57.1,48c3.5,1.3,6.3,3.8,8,7
		c-16.7-1.9-53.2-9.6-72.7-40.3c-1.3-2-3.4-3.3-5.9-3.2c-2.4,0.1-4.6,1.4-5.8,3.4l-29.4,51.4l-52.2-14.7
		C152.2,206.6,185.5,178.7,213.2,161.6L213.2,161.6z M146,255.5c-1.6-3.2-2.5-6.5-2.9-9.9l53.8,15.2l48.3,35.6
		c3.6,2.7,5.7,6.9,5.7,11.4v57.7h-7.4l-4.1-50.3c-0.8-6.2-5.7-11.1-11.9-11.9C213.1,301.5,164.5,292.7,146,255.5L146,255.5z
		 M184.1,305.6c17.5,7.4,34,10.2,41.8,11l4,48.9h-11.6c-2.7-24.3-15.9-45.4-35-58.7L184.1,305.6z M155.8,365.5
		c-1.4-3.1-3.5-5.7-6.1-7.8l26.1-39.5c15.4,10.9,26.1,27.8,28.7,47.3H155.8z M135.8,366.3c4.6,0,8.4,3.8,8.4,8.4s-3.8,8.4-8.4,8.4
		s-8.4-3.8-8.4-8.4S131.2,366.3,135.8,366.3z M135.8,444c-38.2,0-69.3-31.1-69.3-69.3s31.1-69.3,69.3-69.3c10,0,19.4,2.2,28,6
		l-27.3,41.4c-0.2,0-0.5-0.1-0.7-0.1c-12.1,0-22,9.9-22,22s9.9,22,22,22c10.6,0,19.5-7.6,21.6-17.6h47.5
		C202.6,415.3,172.5,444,135.8,444L135.8,444z M269.9,385.9h-25.8v-6.8H256h2.6C263.5,379.1,267.8,381.9,269.9,385.9L269.9,385.9z
		 M264.5,346.1v-38.3c0-8.8-4.2-17.1-11.3-22.4l-21-15.5h80.6L264.5,346.1z M213.7,256.2l-4.9-3.6l23.8-41.6
		c25,30.3,63.7,36.6,79.5,38l3.4,7.3H213.7z M376.2,444c-38.2,0-69.3-31.1-69.3-69.3c0-25.9,14.3-48.5,35.4-60.4l20,43.4
		c-5,4-8.2,10.1-8.2,17c0,12.1,9.9,22,22,22s22-9.9,22-22s-9.9-22-22-22c-0.4,0-0.7,0.1-1.1,0.1l-20.3-44c6.7-2.2,13.9-3.4,21.4-3.4
		c38.2,0,69.3,31.1,69.3,69.3S414.4,444,376.2,444L376.2,444z M376.2,366.3c4.6,0,8.4,3.8,8.4,8.4c0,4.6-3.8,8.4-8.4,8.4
		c-4.6,0-8.4-3.8-8.4-8.4C367.8,370.1,371.5,366.3,376.2,366.3z"/>
</g>
</svg>
