<?xml version="1.0" encoding="utf-8"?>
<!-- Generator: Adobe Illustrator 25.2.0, SVG Export Plug-In . SVG Version: 6.00 Build 0)  -->
<svg version="1.1" id="Capa_1" xmlns="http://www.w3.org/2000/svg" xmlns:xlink="http://www.w3.org/1999/xlink" x="0px" y="0px"
	 viewBox="0 0 495.6 649.6" style="enable-background:new 0 0 495.6 649.6;" xml:space="preserve">
<g>
	<path d="M248.9,152.4l-144.8-31.9c-5.4-1.2-10.7,2.2-11.9,7.6L39.3,368.2c-9.2,42,14.8,83.7,54.5,97.5L61,614.8L12.2,604
		c-5.4-1.2-10.7,2.2-11.9,7.6c-1.2,5.4,2.2,10.7,7.6,11.9l117.2,25.8c5.4,1.2,10.7-2.2,11.9-7.6c1.2-5.4-2.2-10.7-7.6-11.9
		l-48.8-10.7L113.3,470c41.8,4.1,81.1-23.6,90.4-65.6l52.8-240.1C257.7,158.9,254.3,153.5,248.9,152.4L248.9,152.4z M107.7,449
		c-34.5-7.6-56.5-41.9-48.9-76.4l27-122.9l34.1,7.5c5.4,1.2,10.7-2.2,11.9-7.6s-2.2-10.7-7.6-11.9l-34.1-7.5l19.3-87.9l125.3,27.6
		l-19.3,87.9l-13.1-2.9c-5.4-1.2-10.7,2.2-11.9,7.6c-1.2,5.4,2.2,10.7,7.6,11.9l13.1,2.9l-27,122.9
		C176.5,434.6,142.3,456.6,107.7,449z"/>
	<circle cx="88" cy="352.5" r="10"/>
	<path d="M103.1,376.9c-5.4-1.2-10.7,2.2-11.9,7.6s2.2,10.7,7.6,11.9c5.4,1.2,10.7-2.2,11.9-7.6
		C111.9,383.5,108.5,378.1,103.1,376.9L103.1,376.9z"/>
	<path d="M400.7,88.3l-145.4,29.2c-5.4,1.1-8.9,6.4-7.8,11.8l48.4,241c8.5,42.2,47.3,70.6,89.1,67.3l30,149.6l-49,9.8
		c-5.4,1.1-8.9,6.4-7.8,11.8c1.1,5.4,6.4,8.9,11.8,7.8L487.6,593c5.4-1.1,8.9-6.4,7.8-11.8c-1.1-5.4-6.4-8.9-11.8-7.8l-49,9.8
		l-30-149.6c39.9-13.1,64.7-54.3,56.3-96.5l-48.4-241C411.4,90.7,406.1,87.2,400.7,88.3L400.7,88.3z M394.9,109.8l17.7,88.2
		l-125.8,25.2l-17.7-88.2L394.9,109.8z M391,416.6c-34.7,7-68.6-15.6-75.5-50.3l-24.8-123.4l125.8-25.2l24.8,123.4
		C448.2,375.8,425.7,409.6,391,416.6z"/>
	<circle cx="401.5" cy="360.5" r="10"/>
	<path d="M381.5,381.1c-5.5,0-10,4.5-10,10s4.5,10,10,10s10-4.5,10-10S387,381.1,381.5,381.1L381.5,381.1z"/>
	<circle cx="161.2" cy="255.9" r="10"/>
	<circle cx="308.2" cy="156.6" r="10"/>
	<circle cx="156.1" cy="98.1" r="10"/>
	<circle cx="201.9" cy="32.9" r="10"/>
	<circle cx="227.9" cy="82.2" r="10"/>
	<circle cx="290.7" cy="10" r="10"/>
	<circle cx="361.5" cy="52.9" r="10"/>
</g>
</svg>
