<svg id="Capa_1" enable-background="new 0 0 512 512" height="512" viewBox="0 0 512 512" width="512" xmlns="http://www.w3.org/2000/svg"><g><path d="m346.159 421.474h135.841v-15h-172.774c-18.105-6.532-36.507-11.991-55.138-16.401l-38.419-217.856 26.238-4.626c23.071-4.068 23.066-28.895 23.883-30.753 1.468 1.534 9.83 24.803 32.961 20.73l52.332-9.228c7.233-1.276 13.538-5.292 17.751-11.309 9.708-13.862 2.301-26.28.867-41.469l-.599-1.088c-59.143-107.538-220.713-127.272-315.172-35.661-48.533 47.068-53.024 100.355-53.532 101.868 3.914 21.969 3.76 22.348 4.964 25.641 4.603 12.507 17.513 19.889 30.582 17.586l52.333-9.228c9.823-1.732 17.9-8.731 21.164-17.961 1.14-3.223 1.176-4.942 2.836-13.425 2.154 2.232 10.394 25.324 33.513 21.245l25.565-4.508 35.469 201.19c-15.749-2.17-31.627-3.575-47.594-4.256-6.082-31.014-33.46-54.49-66.229-54.49-32.568 0-59.876 23.257-66.142 54h-26.859v15h25.538c.803 36.527 30.745 66 67.462 66 36.404 0 66.353-29.076 67.448-65.447 101.891 4.76 200.496 41.528 280.593 104.447h-441.041v15h512v-15h-47.271c-35.974-30.497-75.749-55.644-118.57-75.001zm-303.14-47.551c10.07 26.067 39.783 55.888 66.028 66.034-40.729 13.107-79.033-25.637-66.028-66.034zm87.325 52.907c-.161.163-.323.326-.487.487-4.745 3.781-25.662-1.399-49.232-24.968-23.567-23.568-28.749-44.484-24.969-49.23 5.404-5.473 27.933 2.696 49.719 24.481 23.567 23.567 28.749 44.483 24.969 49.23zm12.637-20.804c-10.12-26.196-39.914-55.939-66.032-66.033 40.439-13.018 79.132 25.341 66.032 66.033zm215.637-286.939c1.196 6.788-3.353 13.284-10.141 14.48l-52.332 9.228c-5.098.901-10.301-1.493-12.936-5.956l-9.17-15.532 82.407-14.531zm-8.091-26.498-83.44 14.713c-15.248-42.96-37.069-75.226-60.602-91.787 59.654 1.607 113.779 29.969 144.042 77.074zm-254.737 77.298c-.89 4.775-4.519 8.613-9.174 9.815-.883.228 2.272-.376-53.277 9.433-6.8 1.199-13.287-3.366-14.48-10.14l-2.171-12.31 82.406-14.53zm5.049-33.271-4.601.811-78.839 13.902c12.327-54.613 53.485-99.775 108.989-121.689-16.448 23.611-25.914 61.393-25.549 106.976zm14.99-2.643c.045-103.006 52.108-155.112 106.516-81.498h-26.345v15h36.267c2.805 4.719 5.522 9.726 8.132 15h-26.399v15h33.225c1.688 4.037 3.314 8.197 4.871 12.471-14.652 2.582-118.441 20.883-136.267 24.027zm27.357 35.793c-5.063.897-10.084-1.354-12.794-5.723l-9.729-15.691 132.062-23.286-3.304 17.732c-.949 5.094-5.016 9.121-10.118 10.02zm79.298 213.888-36.357-206.228 14.768-2.604 37.341 211.742c-5.232-1.063-10.486-2.015-15.752-2.91z"/><path d="m497 406.474h15v15h-15z"/><path d="m444 114.474c26.191 0 47.5-21.309 47.5-47.5s-21.309-47.5-47.5-47.5-47.5 21.309-47.5 47.5 21.309 47.5 47.5 47.5zm0-80c17.921 0 32.5 14.58 32.5 32.5s-14.579 32.5-32.5 32.5-32.5-14.58-32.5-32.5 14.579-32.5 32.5-32.5z"/><path d="m309 445.474h15v15h-15z"/><path d="m209 425.474h15v15h-15z"/><path d="m19 465.474h15v15h-15z"/><path d="m259 465.474h15v15h-15z"/><path d="m159 455.474h15v15h-15z"/><path d="m166 52.474h15v15h-15z"/></g></svg>