<?xml version="1.0" encoding="utf-8"?>
<!-- Generator: Adobe Illustrator 25.2.0, SVG Export Plug-In . SVG Version: 6.00 Build 0)  -->
<svg version="1.1" id="Calque_1" xmlns="http://www.w3.org/2000/svg" xmlns:xlink="http://www.w3.org/1999/xlink" x="0px" y="0px"
	 viewBox="0 0 512 512" style="enable-background:new 0 0 512 512;" xml:space="preserve">
<g>
	<path d="M138.3,42.3c-21.5,0-39.1,17.5-39.1,39.1c0,21.5,17.5,39.1,39.1,39.1c10.4,0,20.2-4.1,27.6-11.5
		c7.4-7.4,11.5-17.2,11.5-27.6C177.3,59.8,159.8,42.3,138.3,42.3z M161.3,81.4c0,12.7-10.3,23.1-23.1,23.1l0,0
		c-6.1,0-11.9-2.4-16.3-6.8s-6.8-10.2-6.8-16.3c0-12.7,10.3-23.1,23.1-23.1C151,58.3,161.3,68.7,161.3,81.4z"/>
	<path d="M464.9,274.6c-13.4-6.8-31.4-10.6-50.7-10.6c-24.6,0-46.3,5.9-59.7,16.2l-0.7,0.6l-36.8-8.2c-0.6-0.1-1.2-0.2-1.7-0.2
		c-3.7,0-7,2.6-7.8,6.3c-0.5,2.1-0.1,4.2,1.1,6c1.1,1.8,2.9,3.1,5,3.5l29.5,6.6l-0.5,2c-0.5,1.9-0.7,3.8-0.7,5.7
		c0,12.3,10.1,23.4,27.7,30.6l2.7,1.1l-18.1,18.6c-3.1,3.2-3,8.2,0.2,11.3c1.5,1.5,3.5,2.3,5.6,2.3c2.2,0,4.2-0.9,5.7-2.4l24.4-25.1
		l1,0.2c7.4,1.2,15.2,1.9,23.2,1.9c19.3,0,37.3-3.8,50.7-10.6c14-7.2,21.7-17,21.7-27.8C486.7,291.6,478.9,281.8,464.9,274.6z
		 M361.1,295.6l0.3-0.2c0.2-0.2,0.4-0.4,0.5-0.5l0.3-0.3c7.3-6.7,25.2-14.5,52.1-14.5c14.7,0,29.4,2.7,40.4,7.4c10,4.3,16,9.9,16,15
		s-6,10.7-16,15c-11,4.7-25.7,7.4-40.4,7.4c-14.7,0-29.4-2.7-40.4-7.4c-10-4.3-16-9.9-16-15C357.8,300.2,358.9,297.9,361.1,295.6z"
		/>
	<path d="M294.6,441l-2.7-1.1l18.1-18.6c3.1-3.2,3-8.2-0.2-11.3c-1.5-1.5-3.5-2.3-5.6-2.3c-2.2,0-4.2,0.9-5.7,2.4l-24.4,25.1l-1-0.2
		c-7.4-1.2-15.2-1.9-23.2-1.9c-19.3,0-37.3,3.8-50.7,10.6c-14,7.2-21.7,17-21.7,27.8s7.7,20.7,21.7,27.8
		c13.4,6.8,31.4,10.6,50.7,10.6s37.3-3.8,50.7-10.6c14-7.2,21.7-17,21.7-27.8C322.3,459.3,312.2,448.1,294.6,441z M306.3,471.6
		c0,5.1-6,10.7-16,15c-11,4.7-25.7,7.4-40.4,7.4s-29.4-2.7-40.4-7.4c-10-4.3-16-9.9-16-15s6-10.7,16-15c11-4.7,25.7-7.4,40.4-7.4
		c14.7,0,29.4,2.7,40.4,7.4C300.3,460.8,306.3,466.4,306.3,471.6z"/>
	<path d="M198.7,262.6l36.8,8.2c0.6,0.1,1.1,0.2,1.7,0.2c3.7,0,7-2.6,7.8-6.3c0.5-2.1,0.1-4.2-1.1-6c-1.1-1.8-2.9-3.1-5-3.5
		l-29.5-6.6l0.5-2c0.5-1.9,0.7-3.8,0.7-5.6c0-18.3-22.3-30.2-43.2-35.1l-2.5-0.6l45.7-91.6c0.1-0.1,0.1-0.2,0.2-0.4
		c4.4-10.1,6.7-20.8,6.7-31.9C217.6,37.6,182,2,138.3,2S58.9,37.6,58.9,81.4c0,11.1,2.2,21.8,6.7,31.9l0.1,0.2l0,0l0,0l45.8,91.8
		l-2.4,0.6c-11.3,2.7-21.5,7.1-28.9,12.2c-9.4,6.5-14.3,14.4-14.3,22.9c0,10.8,7.7,20.7,21.7,27.8c13.4,6.8,31.4,10.6,50.7,10.6
		c24.6,0,46.3-5.9,59.7-16.2L198.7,262.6z M118.9,220.2l12.2,24.4c1.4,2.7,4.1,4.4,7.2,4.4c3.1,0,5.8-1.7,7.2-4.4l12.2-24.4l1.5,0.3
		c22.3,4.2,35.6,13.8,35.6,20.6c0,2.2-1.1,4.5-3.3,6.8l-0.2,0.2c-0.2,0.2-0.4,0.4-0.6,0.6l-0.2,0.2c-7.2,6.7-25.2,14.5-52.1,14.5
		c-14.7,0-29.4-2.7-40.4-7.4c-10-4.3-16-9.9-16-15c0-3.5,3.6-7.6,10.1-11.4c6.7-3.9,15.7-7.2,25.5-9.1L118.9,220.2z M196.4,106.6
		l-0.1,0.2l-58.1,116.3L80.1,106.5c-3.5-8-5.2-16.4-5.2-25.2c0-34.9,28.4-63.4,63.4-63.4s63.4,28.4,63.4,63.4
		C201.6,90.1,199.9,98.6,196.4,106.6z"/>
	<circle cx="332.1" cy="387" r="8"/>
	<circle cx="276.3" cy="271.7" r="8"/>
</g>
</svg>
