<?xml version="1.0" encoding="utf-8"?>
<!-- Generator: Adobe Illustrator 25.2.0, SVG Export Plug-In . SVG Version: 6.00 Build 0)  -->
<svg version="1.1" id="Calque_1" xmlns="http://www.w3.org/2000/svg" xmlns:xlink="http://www.w3.org/1999/xlink" x="0px" y="0px"
	 viewBox="0 0 79.1 67.4" style="enable-background:new 0 0 79.1 67.4;" xml:space="preserve">
<g id="Layer_2">
	<g id="Workspace">
		<g>
			<path d="M39.6,67.4c-0.4,0-0.7-0.1-1-0.4L5.7,34.7c-7.6-8.2-7.5-21,0-28.5c8.2-7.6,20.9-7.5,28.5,0l5.4,5.4l5.4-5.9
				c8.2-7.6,21-7.6,28.5,0c7.6,8.2,7.5,21,0,28.5L40.6,67C40.3,67.3,39.9,67.4,39.6,67.4z M20.1,3.5c-4.4,0-8.9,1.6-12.4,4.9
				c-6.4,6.4-6.4,17.3,0.1,24.3l31.8,31.2l31.8-31.8c6.4-6.4,6.4-17.4,0-24.4C65,1.3,54,1.3,47,7.8l-6.4,7c-0.3,0.3-0.7,0.5-1.1,0.5
				c-0.4,0-0.8-0.1-1.1-0.4l-6.5-6.5C28.9,5.1,24.5,3.5,20.1,3.5z"/>
		</g>
	</g>
</g>
</svg>
