<?xml version="1.0" encoding="utf-8"?>
<!-- Generator: Adobe Illustrator 25.2.0, SVG Export Plug-In . SVG Version: 6.00 Build 0)  -->
<svg version="1.1" id="icon" xmlns="http://www.w3.org/2000/svg" xmlns:xlink="http://www.w3.org/1999/xlink" x="0px" y="0px"
	 viewBox="0 0 512 512" style="enable-background:new 0 0 512 512;" xml:space="preserve">
<g>
	<path d="M106.8,360.2c0.1,0,0.1,0.1,0.2,0.1c10.2,4.4,21.3,6.8,32.8,6.8c20.6,0,40.1-7.5,55.2-21.3c15.2,13.8,34.6,21.3,55.2,21.3
		c10.8,0,21.2-2.1,30.9-6.1c0.2,0,0.3-0.1,0.5-0.2c10.2-4.2,19.5-10.4,27.4-18.5c15.4,15.8,36.5,24.7,58.8,24.7
		c21.1,0,41.2-8.1,56.4-22.5c0,0,0,0,0,0c2.2-2.1,4.3-4.3,6.3-6.7c1.9-2.2,1.6-5.6-0.6-7.5c-2.2-1.9-5.6-1.6-7.5,0.6
		c-1.2,1.4-2.5,2.7-3.8,4c-29.6-3.1-57.4-14.6-80.7-33.4c-9.7-7.8-17.9-16.9-24.7-27.1c14.9,1.4,30.3-1.8,43.9-10.3
		c19.7-12.3,33.4-31.5,38.7-54.1c5.2-22.6,1.4-45.9-10.9-65.6c-15.2-24.3-38.9-41.3-66.8-47.7c-21.8-5.1-44.1-3.1-64.5,5.1
		c-22.3,3.3-43.5,11.1-62.8,23.1c-74.3,46.3-110.4,135.2-90.5,219.5c-3.9-2.6-7.7-5.6-11.1-9c-2.1-2.1-5.4-2-7.5,0
		c-2.1,2.1-2,5.4,0,7.5C89.1,350.5,97.6,356.2,106.8,360.2z M315.7,107.4c25.2,5.8,46.5,21.1,60.2,43
		c22.3,35.7,11.3,82.8-24.4,105.1c-28.1,17.5-65.1,8.9-82.6-19.1c-6.6-10.6-8.7-23.2-5.9-35.4c2.8-12.2,10.2-22.6,20.9-29.2
		c8.3-5.2,18.1-6.8,27.5-4.6c9.5,2.2,17.6,8,22.7,16.2c1.5,2.5,4.8,3.2,7.3,1.7c2.5-1.5,3.2-4.8,1.7-7.3
		c-6.7-10.7-17.1-18.1-29.3-20.9c-12.2-2.9-24.9-0.7-35.5,5.9c-13,8.1-22.1,20.8-25.6,35.8c-3.5,15-0.9,30.4,7.2,43.4
		c9.4,15,23.5,25.2,39.2,30c8.2,14.6,19,27.4,32.1,38.1c22.2,18,48.3,29.7,76.2,34.4c-11.7,7.8-25.4,12.2-39.7,12.2
		c-21.1,0-41-9.3-54.7-25.4c-1-1.2-2.5-1.9-4-1.9c-1.6,0-3,0.7-4,1.9c-7,8.3-15.7,14.7-25.3,19.1c-31.7-12-57.9-33.5-75.9-62.4
		c-17.3-27.7-22.7-60.4-15.4-92.2c7.4-31.8,26.7-58.8,54.4-76.1C264.6,105.8,290.5,101.5,315.7,107.4z M196.5,134.3
		c8.2-5.1,16.7-9.3,25.5-12.8c-22,18.4-37.4,43.3-43.9,71.7c-8,34.5-2.1,70.1,16.7,100.2c17,27.2,40.8,48.3,69.3,61.7
		c-4.5,0.9-9.2,1.4-13.8,1.4c-19.5,0-37.8-7.7-51.4-21.8c-1-1-2.4-1.6-3.8-1.6s-2.8,0.6-3.8,1.6c-13.6,14.1-31.9,21.8-51.4,21.8
		c-9.3,0-18.3-1.8-26.7-5.2C89.3,268.9,123.3,179.9,196.5,134.3z"/>
	<path d="M422.4,381.7c-13.7,16.2-33.6,25.4-54.7,25.4c-21.1,0-41-9.3-54.7-25.4c-1-1.2-2.5-1.9-4-1.9c-1.6,0-3,0.7-4,1.9
		c-13.7,16.2-33.6,25.4-54.7,25.4c-19.5,0-37.8-7.7-51.4-21.8c-1-1-2.4-1.6-3.8-1.6s-2.8,0.6-3.8,1.6
		c-13.6,14.1-31.9,21.8-51.4,21.8c-19,0-37-7.4-50.5-20.8c-2.1-2.1-5.4-2-7.5,0c-2.1,2.1-2,5.4,0,7.5c15.5,15.4,36.1,23.9,57.9,23.9
		c20.6,0,40.1-7.5,55.2-21.3c15.2,13.8,34.6,21.3,55.2,21.3c22.2,0,43.3-8.9,58.8-24.7c15.4,15.8,36.5,24.7,58.8,24.7
		c24.2,0,47.1-10.6,62.8-29.2c1.9-2.2,1.6-5.6-0.6-7.5C427.6,379.2,424.3,379.5,422.4,381.7z"/>
</g>
</svg>
