<?xml version="1.0" encoding="utf-8"?>
<!-- Generator: Adobe Illustrator 25.2.0, SVG Export Plug-In . SVG Version: 6.00 Build 0)  -->
<svg version="1.1" id="Capa_1" xmlns="http://www.w3.org/2000/svg" xmlns:xlink="http://www.w3.org/1999/xlink" x="0px" y="0px"
	 viewBox="0 0 60 60" style="enable-background:new 0 0 60 60;" xml:space="preserve">
<g>
	<path d="M24,22c0,0.6,0.4,1,1,1s1-0.4,1-1c0-2.2-1.8-4-4-4s-4,1.8-4,4c0,0.6,0.4,1,1,1s1-0.4,1-1c0-1.1,0.9-2,2-2S24,20.9,24,22z"
		/>
	<path d="M38,18c-2.2,0-4,1.8-4,4c0,0.6,0.4,1,1,1s1-0.4,1-1c0-1.1,0.9-2,2-2s2,0.9,2,2c0,0.6,0.4,1,1,1s1-0.4,1-1
		C42,19.8,40.2,18,38,18z"/>
	<path d="M53,14V0H7v14H6v46h48V14H53z M50.5,14l-5.2-6.9L50.4,2H51v12H50.5z M17,14V7c0,0,0,0,0-0.1c0-0.1,0-0.1,0-0.2
		c0,0,0-0.1,0-0.1c0,0,0,0,0-0.1c0-0.1-0.1-0.1-0.1-0.2c0,0,0-0.1-0.1-0.1L12.4,2h35.2l-4.3,4.3c0,0,0,0.1-0.1,0.1
		c0,0.1-0.1,0.1-0.1,0.2c0,0,0,0,0,0.1c0,0,0,0.1,0,0.1c0,0.1,0,0.1,0,0.2c0,0,0,0,0,0.1v7H17z M12,14l3-4v4H12z M45,10l3,4h-3V10z
		 M9,2h0.6l5.1,5.1L9.5,14H9V2z M52,58H8V16h44V58z"/>
	<path d="M38,21c-0.6,0-1,0.4-1,1v6c0,3.9-3.1,7-7,7s-7-3.1-7-7v-6c0-0.6-0.4-1-1-1s-1,0.4-1,1v6c0,5,4,9,9,9s9-4,9-9v-6
		C39,21.4,38.6,21,38,21z"/>
</g>
</svg>
