<?xml version="1.0" encoding="utf-8"?>
<!-- Generator: Adobe Illustrator 25.2.0, SVG Export Plug-In . SVG Version: 6.00 Build 0)  -->
<svg version="1.1" id="Calque_1" xmlns="http://www.w3.org/2000/svg" xmlns:xlink="http://www.w3.org/1999/xlink" x="0px" y="0px"
	 viewBox="0 0 233.5 209.8" style="enable-background:new 0 0 233.5 209.8;" xml:space="preserve">
<g>
	<path d="M149.9,74.9C149.9,33.6,116.3,0,74.9,0S0,33.6,0,74.9s33.6,74.9,74.9,74.9S149.9,116.3,149.9,74.9z M74.9,143.3
		c-37.7,0-68.4-30.7-68.4-68.4S37.2,6.6,74.9,6.6s68.4,30.7,68.4,68.4S112.6,143.3,74.9,143.3z"/>
	<path d="M155.7,119.4C155.7,119.4,155.7,119.4,155.7,119.4l-10.1,0c-1.4,2.3-3,4.5-4.6,6.6h10.6c0,0,0,0,0,0h20l0.8-1.6l2.4-5h0
		l0,0H155.7z"/>
	<polygon points="66.9,49.2 70.7,46.7 74.6,44.8 78.9,43.4 83.3,42.6 87.7,42.4 92.2,42.8 98.3,44.6 101.1,38.6 99.4,37.9 
		95.2,36.7 90.9,36 86.6,35.8 82.1,36.1 77.8,36.9 73.6,38.1 69.5,39.9 65.7,42 62.2,44.6 58.9,47.5 56.1,50.8 53.6,54.4 50.7,59.7 
		40.5,59.7 37.4,66.3 48.5,66.3 47.8,73.2 47.8,76.9 48.5,83.6 40.5,83.6 37.4,90.2 50.7,90.2 53.7,95.7 56.2,99.3 59.2,102.5 
		62.4,105.5 66,108 69.8,110.2 73.9,111.8 78.1,113.1 82.4,113.8 86.8,114.1 91.2,113.8 95.5,113.1 101.1,111.3 98.3,105.3 
		96.8,105.9 92.6,107 88.1,107.5 83.6,107.3 79.2,106.6 75,105.3 71,103.3 67.2,100.9 63.9,98 57.1,90.2 82.6,90.2 85.8,83.6 
		55.2,83.6 54.4,77.3 54.4,73 55.2,66.3 88,66.3 91.1,59.7 57.1,59.7 63.6,52.2 	"/>
	<path d="M134.3,149.9l2.2,4.1l0.8,1.4l2.5,3.6l0.3,0.4l2.6,2.9l1.1,1l2.1,1.9l2.5,1.8l1,0.7l2.2,1.2l1.7,0.9l4,1.7l4.2,1.2l4.3,0.8
		l4.4,0.2h0h0l4.4-0.2l4.3-0.7l5.7-1.8l-2.8-6l-1.5,0.6l-0.9,0.2l-3.4,0.9l-4.5,0.5l-4.5-0.2l-4.4-0.7l-4.2-1.3l-4-1.9l-3.7-2.4
		l-3.4-2.9l-6.8-7.8h25.5l0,0h0l1.6-3.3l1.6-3.3h-30.5L138,137l0-4.3l0.4-3.5c-2.2,2.6-4.6,5-7.1,7.3l0,0.2l0.7,6.7h-8l-3.1,6.6h7.5
		c0,0,0,0,0,0H134.3z"/>
	<path d="M158.2,104.5l4.2-1.4l3.3-0.6l1.1-0.2l4.5-0.2l4.4,0.4l6.1,1.8l2.8-6l-1.7-0.7l-4.2-1.2l-4.3-0.7l-4.2-0.2l-4.5,0.3l-1,0.2
		l0,0c0,0,0,0,0,0l-3.4,0.6l-4.2,1.3l-2.2,0.9c-1,3.2-2.1,6.4-3.4,9.4l2.7-1.8L158.2,104.5z"/>
	<path d="M158.5,59.9c-0.5,0-0.9,0.1-1.4,0.1c0.4,2.2,0.8,4.3,1,6.5c0.1,0,0.3,0,0.4,0c37.7,0,68.4,30.7,68.4,68.4
		s-30.7,68.4-68.4,68.4c-30.2,0-55.8-19.7-64.9-46.9c-2.1,0.5-4.3,0.9-6.5,1.2c9.6,30.3,38,52.3,71.4,52.3
		c41.3,0,74.9-33.6,74.9-74.9S199.9,59.9,158.5,59.9z"/>
</g>
</svg>
