<svg version="1.2" xmlns="http://www.w3.org/2000/svg" viewBox="0 0 63 46" width="63" height="46"><style>.s0{fill:#ffffff}</style><path class="s0" d="m6.2 32.3l-6.2-3.8c1.8-3.5 3.7-2.1 8-1.2c7.7 1.7 2.8 1.1 15.8-6c2.5-1.4 5-2.9 7.5-4.3c-1.2-1.2-2.7-2.7-4.1-3.7l-8.5-7.2c-1.5-1.2-3-2.5-4.3-3.8c0.6-0.4 3.5-2.1 4-2.2c1.3-0.2 19.4 8.1 22 9.2c2.3 1 1.9 1.4 4 0.1c5.3-3.1 12.6-8.7 17.4-6.9c1.9 0.7 0.8 3.1-0.1 4.5c-1.8 2.8-11.5 7.9-15 9.9c-0.7 3-2.3 19-2.9 24c-0.2 2.4 0 2-1.6 2.9c-1.1 0.6-1.8 1.1-2.8 1.5c-1.6-4.4-2.8-19-4.4-21.7c-3.8 1.7-10.4 6.2-15.2 8.3c-5.4 2.5-3.3 0.7-5.2 6.3c-2.1 6.3-1.5 5.8-5.1 6.6l0.2-9.3z" /></svg>