<svg version="1.2" xmlns="http://www.w3.org/2000/svg" viewBox="0 0 1200 1080" width="40" height="40">
    <style>.s0{fill:#FFFFFF}</style>
    <path fill-rule="evenodd" class="s0"
          d="m780 390c0 215.4-174.6 390-390 390c-215.4 0-390-174.6-390-390c0-215.4 174.6-390 390-390c215.4 0 390 174.6 390 390zm-720 0c0 182.3 147.7 330 330 330c182.3 0 330-147.7 330-330c0-182.3-147.7-330-330-330c-182.3 0-330 147.7-330 330zm412.3-208.8l23.2 3.7l22.6 6.5l21.9 8.9l-25.8 54.1l-19.2-7.4l-19.8-5l-20.4-2l-20.6 0.8l-20.3 3.5l-19.4 6.2l-18.6 9.1l-17.2 11.2l-15.3 13.6l-13.5 15.6h162.8l-28.4 60h-161.4l-2.5 20v20l2.5 20h162.8l-28.5 60h-107.3l13.5 15.6l15.3 13.6l17.2 11.2l18.6 9.1l19.4 6.2l20.3 3.5l20.6 0.8l20.4-2l19.8-5l19.2-7.4l25.8 54.2l-21.9 8.8l-22.6 6.5l-23.2 3.8l-23.6 1.1l-23.5-1.3l-23.2-4.2l-22.5-6.7l-21.8-9l-20.6-11.6l-19.1-13.7l-17.4-15.8l-15.6-17.7l-13.5-19.3l-11.3-20.7h-80.2l28.4-60h33.7l-2-20v-20l2-20h-62.1l28.4-60h51.8l11.3-20.7l13.5-19.3l15.6-17.7l17.4-15.8l19.1-13.7l20.6-11.5l21.8-9.1l22.5-6.7l23.2-4l23.5-1.5zm727.7 508.8c0 215.4-174.6 390-390 390c-158.9-0.1-301.9-96.7-361.4-244.2c20.6-2.7 40.6-6.8 60.2-12.2c52.8 119.3 170.8 196.2 301.2 196.4c182.3 0 330-147.7 330-330c0-171.1-130.9-313.7-301.4-328.6c-1.3-20.6-3.5-40.9-7.5-60.7c206.9 11.2 368.9 182.2 368.9 389.3zm-307.7-208.8l23.2 3.8l22.6 6.4l21.9 8.9l-25.7 54.1l-19.3-7.3l-19.8-5.1l-20.4-2l-20.6 0.8l-20.2 3.6l-19.5 6.2l-5.7 2.8c8.7-22.3 16-45.4 21.2-69.3l15.2-2.5l23.6-1.6zm20.3 118.9l-28.3 60h-135.4c14.4-19 27.4-38.9 38.6-60zm-192.3 99.9l2.6 20.1h162.7l-28.4 60h-107.4l13.5 15.5l15.3 13.6l17.3 11.3l18.5 9l19.4 6.2l20.3 3.5l20.6 0.9l20.4-2l19.8-5.1l19.3-7.4l25.7 54.3l-21.9 8.8l-22.6 6.4l-23.2 3.9l-23.6 1.1l-23.5-1.3l-23.2-4.3l-22.5-6.6l-21.8-9.1l-20.5-11.6l-19.1-13.7l-17.5-15.8l-15.6-17.7l-13.4-19.2l-11.4-20.7h-66.9c40-23.1 76-52.1 107.1-85.8z"/>
</svg>