<svg version="1.2" xmlns="http://www.w3.org/2000/svg" viewBox="0 0 43 40" width="40" height="40">
    <style>.s0{fill:#FFFFFF}</style>
    <path fill-rule="evenodd" class="s0"
          d="m0 17v-12c0-1.7 1.3-3 3-3h3v-1c0-0.6 0.4-1 1-1h6c0.6 0 1 0.4 1 1v1h3v-1c0-0.6 0.4-1 1-1h6c0.6 0 1 0.4 1 1v1h4v-1c0-0.6 0.4-1 1-1h6c0.6 0 1 0.4 1 1v1h3c1.7 0 3 1.3 3 3v4c0 0.6-0.4 1-1 1c-0.6 0-1-0.4-1-1v-4c0-0.6-0.4-1-1-1h-3v4c0 0.6-0.4 1-1 1h-6c-0.6 0-1-0.4-1-1v-4h-4v4c0 0.6-0.4 1-1 1h-6c-0.6 0-1-0.4-1-1v-4h-3v4c0 0.6-0.4 1-1 1h-6c-0.6 0-1-0.4-1-1v-4h-3c-0.6 0-1 0.4-1 1v7h40c0.6 0 1 0.4 1 1v24c0 1.7-1.3 3-3 3h-37c-1.7 0-3-1.3-3-3v-17m2 17c0 0.6 0.4 1 1 1h37c0.6 0 1-0.4 1-1v-23h-39zm10-35h-4v5h4zm11 0h-4v5h4zm12 0h-4v5h4z"/>
    <path class="s0"
          d="m10.4 21.8c-0.8 0-1.4-0.6-1.4-1.4c0-0.8 0.6-1.4 1.4-1.4c0.8 0 1.4 0.6 1.4 1.4c0 0.8-0.6 1.4-1.4 1.4z"/>
    <path class="s0"
          d="m25.9 21.8c-0.8 0-1.4-0.6-1.4-1.4c0-0.8 0.6-1.4 1.4-1.4c0.8 0 1.4 0.6 1.4 1.4c0 0.8-0.6 1.4-1.4 1.4z"/>
    <path class="s0"
          d="m33.6 21.8c-0.8 0-1.4-0.6-1.4-1.4c0-0.8 0.6-1.4 1.4-1.4c0.8 0 1.4 0.6 1.4 1.4c0 0.8-0.6 1.4-1.4 1.4z"/>
    <path class="s0"
          d="m18.1 21.8c-0.8 0-1.4-0.6-1.4-1.4c0-0.8 0.6-1.4 1.4-1.4c0.8 0 1.4 0.6 1.4 1.4c0 0.8-0.6 1.4-1.4 1.4z"/>
    <path class="s0"
          d="m10.4 27.8c-0.8 0-1.4-0.6-1.4-1.4c0-0.8 0.6-1.4 1.4-1.4c0.8 0 1.4 0.6 1.4 1.4c0 0.8-0.6 1.4-1.4 1.4z"/>
    <path class="s0"
          d="m25.9 27.8c-0.8 0-1.4-0.6-1.4-1.4c0-0.8 0.6-1.4 1.4-1.4c0.8 0 1.4 0.6 1.4 1.4c0 0.8-0.6 1.4-1.4 1.4z"/>
    <path class="s0"
          d="m33.6 27.8c-0.8 0-1.4-0.6-1.4-1.4c0-0.8 0.6-1.4 1.4-1.4c0.8 0 1.4 0.6 1.4 1.4c0 0.8-0.6 1.4-1.4 1.4z"/>
    <path class="s0"
          d="m18.1 27.8c-0.8 0-1.4-0.6-1.4-1.4c0-0.8 0.6-1.4 1.4-1.4c0.8 0 1.4 0.6 1.4 1.4c0 0.8-0.6 1.4-1.4 1.4z"/>
    <path class="s0"
          d="m10.4 33.8c-0.8 0-1.4-0.6-1.4-1.4c0-0.8 0.6-1.4 1.4-1.4c0.8 0 1.4 0.6 1.4 1.4c0 0.8-0.6 1.4-1.4 1.4z"/>
    <path class="s0"
          d="m25.9 33.8c-0.8 0-1.4-0.6-1.4-1.4c0-0.8 0.6-1.4 1.4-1.4c0.8 0 1.4 0.6 1.4 1.4c0 0.8-0.6 1.4-1.4 1.4z"/>
    <path class="s0"
          d="m33.6 33.8c-0.8 0-1.4-0.6-1.4-1.4c0-0.8 0.6-1.4 1.4-1.4c0.8 0 1.4 0.6 1.4 1.4c0 0.8-0.6 1.4-1.4 1.4z"/>
    <path class="s0"
          d="m18.1 33.8c-0.8 0-1.4-0.6-1.4-1.4c0-0.8 0.6-1.4 1.4-1.4c0.8 0 1.4 0.6 1.4 1.4c0 0.8-0.6 1.4-1.4 1.4z"/>
</svg>