<svg version="1.2" xmlns="http://www.w3.org/2000/svg" viewBox="0 0 486 426" width="40" height="40">
    <style>.s0{fill:#ffffff}</style>
    <path fill-rule="evenodd" class="s0"
          d="m235.3 426.1c-36.6 0-71.1-9.2-101.2-25.5q-0.2 0-0.5-0.1c-1.5-0.4-2.7-1.1-3.6-2.2c-25.9-14.7-48.4-34.7-66-58.6c-9.7-0.5-19.3-2.2-28.5-5c-13.2-3.5-24.4-12.2-31-24.2c-10-20.2 1.8-53.9 18.5-79.1q-0.8-9.1-0.8-18.4c0-117.7 95.4-213.1 213.1-213.1c19.5 0 38.4 2.6 56.4 7.5q1.4 0.1 2.7 0.8c35.5 10.2 67.3 29.5 92.6 55.1q0.8 0.6 1.4 1.4c22.2 23 39.4 51 49.5 82.1c28.2-32.5 39.2-60.9 30.6-78.3c-6.2-12.5-23.8-20.1-49.3-21.6l12.2 15c2.4 3 2 7.3-1 9.7c-1.2 0.8-2.8 1.4-4.4 1.4c-2.1 0-4-0.9-5.4-2.5l-21.4-26.2c-2.3-2.9-2-6.9 0.6-9.4q0.7-0.7 1.6-1.2l27-19.8c3.1-2.3 7.4-1.6 9.7 1.5c2.3 3.1 1.6 7.4-1.5 9.7l-11.4 8.4c28.1 2.6 47.5 12.6 55.6 28.9c12.5 25.2-2.9 61.4-38.4 100.1c3.9 16.2 6 33.1 6 50.5c-0.1 51.3-18.3 98.5-48.6 135.3q-0.2 0.4-0.5 0.9q-0.7 1-1.7 1.7c-39.1 45.9-97.3 75.1-162.3 75.2zm0-412.3c-110.1 0-199.3 89.2-199.3 199.2q0 9.8 0.9 19.4q0.1 0.3 0.1 0.6c2.3 22.8 8.4 44.5 17.7 64.3c9 0.8 18.8-2.1 21.3-9.3c2-5.8-1-13-4.2-20.7c-4.2-9.9-8.9-21.2-3.3-32.4c3.2-6.3 9-10.8 15.9-12.4c9.6-2.2 19.7-0.3 27.7 5.4c9.3 7.7 16.7 17.5 21.5 28.6l2.5 4.7c7.1 13 14.5 20.2 22.6 22c1.7 0.4 3.4 0.6 5.1 0.8c3.4 0.2 6.7 0.9 9.9 2c8.2 3 13.3 9.5 17.2 16.3c12.3-4.3 24.8-9.1 37.5-14.5c-8.2-28.3 0.6-59.4 23.6-79.2c1.2-1 2.4-1.9 3.7-2.9c3.4-2.3 6.5-5.2 8.9-8.5c2.6-5.5 3.8-11.5 3.5-17.5c0.1-4.1 0.5-8.3 1.2-12.4c1.3-6 3.2-11.8 5.8-17.4c2.5-5.2 4.2-10.8 5.2-16.5c0.4-5.3-1.7-10.6-5.6-14.2c-1.4-1.4-3.4-1.9-5.3-1.3c-3 1.7-5.5 4.1-7.3 7.1c-2.9 4.4-6.7 8.2-11.2 10.9c-3.7 1.8-7.8 2.9-11.9 3.3q-25.8 3.6-51.6 7.2c-21.2 3-34.9-1.4-40.7-13.1c-2.4-6-3.3-12.5-2.4-19c0.5-6.9 1.8-25.3 16.2-30.7c11.7-4.3 22.5 3.2 30.4 8.6l1.5 1.1c9.4 6.5 26.5 11.7 33.5 2.2c0.6-0.8 1.1-1.8 1.7-2.8c1.3-2.6 3-5 5-7c5.3-4.3 11.8-6.7 18.6-6.8c1-0.1 2-0.2 3-0.4c11.8-0.8 22.7-6.9 29.6-16.5c6.2-9.9 6.8-24.7 1.9-41.7c-16.1-4.2-33-6.5-50.4-6.5zm-164.1 312.3c28.8 0.7 65.8-6.1 106.4-19.3c-2.4-3.6-5.2-6.6-8.6-7.8q-3.3-1.1-6.6-1.2c-2.3-0.2-4.5-0.6-6.8-1c-12.1-2.8-22.4-12.2-31.6-28.9l-2.6-4.8c-3.9-9.2-9.8-17.3-17.3-23.9c-4.7-3.3-10.7-4.5-16.3-3.2c-2.9 0.5-5.5 2.4-6.9 5c-2.8 5.6 0.2 12.7 3.7 21c3.9 9.3 8.3 19.8 4.5 30.6c-4 11.4-15.3 17.3-27.3 18.5q4.3 7.7 9.4 15zm209.5-63c36.6-19.1 68.5-39.4 95.1-59.6q-3-2-6.3-3.8q-3.9-2.3-7.8-4.8c-1.4-0.9-2.6-1.6-3.6-2.3c-8.9-5.4-11.4-9.4-9.5-24.3c1.5-9 5-17.6 10.5-24.9c0.9-1.4 1.8-2.9 2.8-4.4c13.2-21.6 13.5-38.1 13.8-60.9c0-2.1 0-4.1 0.1-6.2c-20.9-20.8-46.3-37-74.7-46.9c2.9 14.1 3 30.6-5.5 44.4c-9 13.2-23.4 21.7-39.3 23c-1.1 0.2-2.2 0.3-3.4 0.4c-3.8 0-7.4 1.1-10.6 3.1c-1 1.2-1.9 2.5-2.5 3.9c-0.8 1.4-1.6 2.8-2.5 4.2c-11.9 16.1-35.9 12.6-52.5 1l-1.5-1.1c-6.3-4.4-12.8-8.8-17.7-7.1c-4.1 1.5-6.5 7.7-7.2 18.7c-0.6 4-0.3 8.1 1 11.9c3.5 7.1 16.3 6.9 26.4 5.5q25.8-3.6 51.6-7.2c2.5-0.2 5-0.8 7.3-1.8c2.7-1.9 4.9-4.2 6.7-7c3.3-5.3 8.1-9.5 13.9-11.9c6.3-2.1 13.3-0.7 18.4 3.6c7.7 6.6 11.6 16.5 10.7 26.5c-1.1 7-3.2 13.8-6.2 20.2c-2.1 4.7-3.8 9.6-5 14.6c-0.5 3.5-0.9 7-0.9 10.5c0.3 8.5-1.7 16.9-5.7 24.3c-3.3 4.7-7.4 8.7-12.2 12c-1.1 0.9-2.2 1.7-3.3 2.6c-18.2 15.7-25.5 40.2-19.6 62.8c13-5.8 26.1-12.2 39.2-19zm146.3-104.3c-7.6-26.7-20.5-51.2-37.7-72c-0.5 19.6-2.4 37.7-15.7 59.4c-1 1.6-1.9 3.1-2.9 4.6c-4.3 5.6-7.2 12.2-8.4 19.1c-0.7 2.8-0.8 5.7-0.2 8.6c1 0.8 2.1 1.5 3.2 2.2c1.2 0.7 2.6 1.6 4.1 2.6c2.4 1.6 4.8 3 7.2 4.4q5.6 3 10.7 6.9c15.2-12.1 28.5-24.2 39.7-35.8zm-191.8 253.5c20.3 0 39.8-3 58.2-8.6q-0.9-2.3-2.1-4.4c-4.7-7.3-11.5-13.1-19.5-16.7c-4.8-2.6-10.2-3.9-15.7-3.8c-7.7 1.7-14.9 5.3-20.9 10.5c-9.7 6.8-20.6 14.6-34.1 11.9c-4-0.9-7.9-2.4-11.5-4.4l-26.6-13.1c-3.3-1.9-7.4-2.3-11-0.9c-3.3 1.7-6 4.3-7.9 7.5c27.3 14.1 58.3 22 91.1 22zm148.3-66.1c-8.9-9-13.5-23-7.1-35.2c2.4-4.2 5.5-8 9.1-11.3c1.4-1.4 2.9-2.8 4.2-4.4c2.1-2.5 2.3-4 2.2-4.2c-2.1-1.2-4.8-1.2-6.9 0c-14.8 6.1-31.8-0.1-39.3-14.2c-3.4-7.6-3.1-16.3 0.7-23.8c3.3-7.1 9.6-12.2 17.2-14c3.5-0.7 7-0.9 10.6-0.7c3 0.3 6 0 8.8-0.9c3.7-2.6 5.9-6.9 5.8-11.5c0.6-4.6-0.3-9.2-2.7-13c-28.4 21.7-61.8 43-99.1 62.4c-13.5 7-27 13.6-40.5 19.6c1 1.8 2 3.5 3 5.3c5.5 9.5 11.6 20.2 8.6 32.4c-2 7.6-7.2 13.8-14.3 17.2c-5.3 2.3-10.7 3.6-16.2 3.6c-4.7 0-9.3-0.9-13.6-2.7c-14.7-6.2-23.7-19.9-29.8-31.7c-38.1 12.4-73.5 19.6-102.7 20.7c14.2 17.2 31.3 32 50.5 43.7c3.3-5.8 8.3-10.5 14.5-13.5c7.3-3 15.6-2.5 22.6 1.2l26.7 13.2c2.5 1.4 5.2 2.5 8 3.2c7.6 1.5 14.9-3.7 23.3-9.7c7.9-6.7 17.4-11.1 27.6-12.9c8-0.5 16 1.3 23 5.1c10.4 4.7 19.2 12.4 25.2 22q2 3.4 3.4 7.1c29.9-11.4 56.2-29.7 77.2-53zm51-133.1c0 0 0 0 0-0.1c0-13.2-1.3-26-3.7-38.5c-10.1 9.9-21.3 19.9-33.7 29.9c4.4 6.5 6.4 14.4 5.5 22.3c0.1 9.7-5.2 18.7-13.8 23.3c-4.7 1.9-9.8 2.6-14.9 2.2c-2.5-0.2-4.9 0-7.4 0.4c-3.5 0.9-6.3 3.4-7.8 6.6c-1.9 3.6-2.1 8-0.5 11.8c4.3 7.4 13.4 10.6 21.4 7.4c8-4 17.6-2.1 23.5 4.6c1.7 2.3 6.4 10.5-2.8 21.3c-1.5 1.8-3.3 3.5-5 5.3c-2.6 2.3-4.8 4.9-6.5 7.8c-3 5.8-0.8 13 3.7 18.1c26.3-33.8 42-76.3 42-122.4zm-417.5 91.2c5 8.6 13.2 14.8 22.9 17.2q6.4 2.1 13.9 3.2q-5.1-8.3-9.5-17.1q-0.5-0.8-0.8-1.7c-8-16.3-13.9-33.8-17.4-52.2c-10.3 20.4-14.2 40.4-9.1 50.6zm202.3 33.8c5.8 2.3 12.3 2.1 17.9-0.6c3.4-1.5 6-4.5 7.1-8.1c1.7-6.8-2.6-14.2-7.2-22.1c-1.3-2.2-2.6-4.4-3.7-6.7c-12.2 5.2-24.2 9.8-36 14c5 9.3 11.9 19.3 21.9 23.5z"/>
</svg>