<svg version="1.2" xmlns="http://www.w3.org/2000/svg" viewBox="0 0 447 439" width="40" height="40">
    <style>.s0{fill:#ffffff}</style>
    <path fill-rule="evenodd" class="s0"
          d="m0.4 57.2c0-4.6 3.8-8.4 8.4-8.4h76.2l0.9-3.8c5.7-25.6 28.9-44.2 55.1-44.2c31.2 0 56.5 25.3 56.5 56.5c0 31.2-25.3 56.5-56.5 56.5c-26.2 0-49.4-18.6-55.1-44.2l-0.9-3.9h-76.2c-4.7 0-8.5-3.8-8.4-8.5zm100.9 0.1c0 21.8 17.8 39.6 39.7 39.6c21.9 0 39.7-17.7 39.7-39.6c0-21.9-17.8-39.7-39.7-39.7c-21.9 0-39.7 17.8-39.7 39.7zm128.1 0c0-4.6 3.8-8.4 8.4-8.4h200.7c4.6 0 8.4 3.8 8.4 8.4c0 4.6-3.8 8.4-8.4 8.4h-200.7c-4.7 0-8.4-3.8-8.4-8.4zm-229 162.3c0-4.6 3.8-8.4 8.4-8.4h215.7c4.6 0 8.4 3.8 8.4 8.4c0 4.6-3.8 8.4-8.4 8.4h-215.7c-4.7 0-8.5-3.8-8.4-8.4zm446.5-0.1c0 4.6-3.8 8.4-8.4 8.4h-61.2l-0.9 3.9c-5.7 25.6-28.9 44.2-55.1 44.2c-31.2 0-56.5-25.3-56.5-56.5c0-31.2 25.3-56.5 56.5-56.5c26.2 0 49.4 18.6 55.1 44.2l0.9 3.9h61.2c4.6 0 8.4 3.8 8.4 8.4zm-85.9 0.1c0-21.8-17.8-39.6-39.7-39.6c-21.9 0-39.7 17.8-39.7 39.6c0 21.8 17.8 39.6 39.7 39.6c21.8 0 39.7-17.8 39.7-39.6zm-178.5 162.2c0 31.1-25.3 56.5-56.5 56.5c-26.2 0-49.4-18.6-55.1-44.2l-0.9-3.9h-61.2c-4.6 0-8.4-3.8-8.4-8.4c0-4.6 3.8-8.4 8.4-8.4h61.2l0.9-3.9c5.7-25.6 28.9-44.2 55.1-44.2c31.1 0 56.5 25.3 56.5 56.5zm-16.8-0.1c0-21.8-17.8-39.6-39.7-39.6c-21.9 0-39.7 17.7-39.7 39.6c0 21.9 17.8 39.7 39.7 39.7c21.8 0 39.6-17.7 39.7-39.7zm281.2 0.1c0 4.6-3.8 8.4-8.4 8.4h-215.7c-4.6 0-8.4-3.8-8.4-8.4c0-4.6 3.8-8.4 8.4-8.4h215.7c4.6 0 8.4 3.8 8.4 8.4z"/>
</svg>